<?xml version="1.0" standalone="no"?>
<!DOCTYPE svg PUBLIC "-//W3C//DTD SVG 1.1//EN" "http://www.w3.org/Graphics/SVG/1.1/DTD/svg11.dtd" >
<svg xmlns="http://www.w3.org/2000/svg" xmlns:xlink="http://www.w3.org/1999/xlink" version="1.1">
<metadata>
Created by FontForge 20170924 at Mon Sep 21 17:05:05 1998
 By www-data
Generated by Fontographer 4.1.5
</metadata>
<defs>
<font id="a0279" horiz-adv-x="1024" >
  <font-face 
    font-family="00279"
    font-weight="400"
    font-stretch="normal"
    units-per-em="2048"
    panose-1="0 0 4 0 0 0 0 0 0 0"
    ascent="1638"
    descent="-410"
    x-height="981"
    cap-height="1464"
    bbox="-342 -483 2519 1972"
    underline-thickness="190"
    underline-position="-318"
    unicode-range="U+0020-F002"
  />
<missing-glyph 
d="M128 0v1972h768v-1972h-768zM256 128h512v1716h-512v-1716z" />
    <glyph glyph-name=".notdef" 
d="M128 0v1972h768v-1972h-768zM256 128h512v1716h-512v-1716z" />
    <glyph glyph-name=".null" horiz-adv-x="0" 
 />
    <glyph glyph-name="glyph2" horiz-adv-x="629" 
 />
    <glyph glyph-name="space" unicode=" " horiz-adv-x="629" 
 />
    <glyph glyph-name="exclam" unicode="!" horiz-adv-x="688" 
d="M201 457v1040h284v-1040h-284zM172 133q0 72 50 121t122 49t121 -49t49 -121q0 -73 -49 -122.5t-121 -49.5q-70 0 -121 51t-51 121z" />
    <glyph glyph-name="quotedbl" unicode="&#x22;" horiz-adv-x="678" 
d="M406 1438h192v-559h-192v559zM80 1438h192v-559h-192v559z" />
    <glyph glyph-name="numbersign" unicode="#" horiz-adv-x="1575" 
d="M709 848l-88 -244h251l86 244h-249zM709 1464h221l-146 -415h242l148 415h221l-148 -415h283l-74 -201h-280l-84 -242h290l-71 -200h-291l-148 -416h-221l148 416h-244l-149 -416h-220l146 416h-287l76 200h282l86 242h-299l74 201h297z" />
    <glyph glyph-name="dollar" unicode="$" horiz-adv-x="1255" 
d="M111 219l174 187q75 -166 274 -166v389q-236 100 -332 201t-96 241q0 175 147 284q126 93 312 109v115h94v-116q108 0 205 -48q88 -44 158 -133l-185 -168q-61 104 -178 121v-367q412 -164 412 -436q0 -187 -129 -302q-119 -105 -312 -124v-158h-96v156q-150 0 -276 60
q-114 55 -172 155zM590 1235q-154 -33 -154 -160q0 -107 154 -172v332zM655 250q148 38 148 174q0 102 -148 164v-338z" />
    <glyph glyph-name="percent" unicode="%" horiz-adv-x="1731" 
d="M741 1075q0 -180 -83 -287q-93 -118 -267 -118q-175 0 -268 117q-84 107 -84 288q0 179 85 286q93 118 267 118q176 0 267 -117q83 -105 83 -287zM254 1075q0 -262 137 -262t137 262q0 260 -137 260t-137 -260zM510 -39h-150l857 1518h149zM1692 367q0 -180 -85 -288
q-93 -118 -268 -118t-268 118q-84 107 -84 288q0 179 85 286q93 117 267 117q177 0 269 -116q84 -105 84 -287zM1202 365q0 -261 137 -261q140 0 140 263q0 260 -138 260q-139 0 -139 -262z" />
    <glyph glyph-name="ampersand" unicode="&#x26;" horiz-adv-x="1464" 
d="M614 934l52 31q114 68 114 174q0 62 -37.5 101.5t-99.5 39.5q-64 0 -104.5 -39.5t-40.5 -103.5q0 -32 11 -59.5t34 -55.5zM819 317l-276 332l-31 -22q-145 -103 -145 -224q0 -82 62 -140t144 -58q154 0 246 112zM1094 0l-125 143q-182 -178 -402 -178q-205 0 -333 106
q-138 113 -138 314q0 244 310 430q-152 150 -152 320q0 160 120 248q107 79 273 79q158 0 261 -74q116 -83 116 -235q0 -180 -268 -362l248 -287q112 107 213 227l161 -172l-105 -115l-118 -120l268 -324h-329z" />
    <glyph glyph-name="quotesingle" unicode="'" horiz-adv-x="352" 
d="M80 1438h192v-559h-192v559z" />
    <glyph glyph-name="parenleft" unicode="(" horiz-adv-x="688" 
d="M627 1466q-211 -422 -211 -938q0 -556 211 -944l-226 -53q-237 446 -237 983q0 577 237 1002z" />
    <glyph glyph-name="parenright" unicode=")" horiz-adv-x="688" 
d="M61 1466l226 50q237 -422 237 -1002q0 -535 -237 -983l-226 53q211 392 211 944q0 508 -211 938z" />
    <glyph glyph-name="asterisk" unicode="*" horiz-adv-x="973" 
d="M215 834l-86 137l233 121l-229 120l82 138l209 -150l-14 264h161l-14 -260l205 146l80 -138l-224 -122l220 -115l-76 -139l-207 147l16 -250h-159l16 246z" />
    <glyph glyph-name="plus" unicode="+" horiz-adv-x="1706" 
d="M752 1221h202v-510h498v-199h-498v-512h-202v512h-498v199h498v510z" />
    <glyph glyph-name="comma" unicode="," horiz-adv-x="629" 
d="M63 -332l193 627h307l-309 -627h-191z" />
    <glyph glyph-name="hyphen" unicode="-" horiz-adv-x="854" 
d="M147 362v252h560v-252h-560z" />
    <glyph glyph-name="hyphen" unicode="&#x2010;" horiz-adv-x="854" 
d="M147 362v252h560v-252h-560z" />
    <glyph glyph-name="period" unicode="." horiz-adv-x="629" 
d="M141 141q0 73 50 123.5t122 50.5q71 0 121.5 -51t50.5 -123q0 -71 -50 -120.5t-122 -49.5q-71 0 -121.5 49.5t-50.5 120.5z" />
    <glyph glyph-name="slash" unicode="/" horiz-adv-x="930" 
d="M0 -190l717 1687h213l-717 -1687h-213z" />
    <glyph glyph-name="zero" unicode="0" horiz-adv-x="1255" 
d="M1169 721q0 -358 -143 -559t-397 -201q-289 0 -429 248q-112 199 -112 512q0 311 113 510q141 248 428 248q289 0 429 -247q111 -197 111 -511zM391 719q0 -488 236 -488q237 0 237 492q0 487 -235 487q-238 0 -238 -491z" />
    <glyph glyph-name="one" unicode="1" horiz-adv-x="1255" 
d="M512 0v1204h-293l123 246h465v-1450h-295z" />
    <glyph glyph-name="two" unicode="2" horiz-adv-x="1255" 
d="M1094 242v-242h-1014l520 682q110 144 150 222q43 83 43 143q0 87 -52.5 135.5t-140.5 48.5q-91 0 -141 -70q-43 -62 -43 -157v-7h-295v25q0 223 129 342q125 115 350 115q217 0 346 -93q148 -105 148 -313q0 -236 -338 -638l-21 -25l-135 -168h494z" />
    <glyph glyph-name="three" unicode="3" horiz-adv-x="1255" 
d="M106 387h289v-4q0 -85 67 -134q60 -44 148 -44q232 0 232 211q0 106 -63 162q-70 61 -183 55l-39 -2v256l35 -2q102 -6 163 46q54 46 54 138q0 80 -49.5 127t-130.5 47q-172 0 -193 -151h-278q0 177 134 286q125 101 347 101q198 0 323 -93q140 -105 140 -296
q0 -122 -63 -208q-66 -90 -183 -112q133 -28 209 -135q72 -101 72 -240q0 -218 -163 -333q-142 -101 -370 -101q-207 0 -345 101q-153 113 -153 313v12z" />
    <glyph glyph-name="four" unicode="4" horiz-adv-x="1255" 
d="M752 0v281h-705v135l705 1063h268v-990h154v-208h-154v-281h-268zM756 489v504q0 16 2 112q1 29 8 70q-35 -100 -102 -202l-316 -484h408z" />
    <glyph glyph-name="five" unicode="5" horiz-adv-x="1255" 
d="M156 317q175 -118 338 -118q136 0 219 64q92 70 92 202q0 135 -91 204q-82 62 -222 62q-157 0 -273 -86l-69 43l182 762h755v-246h-565l-71 -297q79 23 143 29q21 2 49 2q208 0 338.5 -129t130.5 -336q0 -252 -177 -389q-161 -123 -421 -123q-241 0 -422 119z" />
    <glyph glyph-name="six" unicode="6" horiz-adv-x="1255" 
d="M403 451q0 -106 60 -169t166 -63q101 0 161 65t60 167q0 110 -60 172.5t-169 62.5q-98 0 -158 -67.5t-60 -167.5zM526 874q80 41 189 41q192 0 311 -131q115 -127 115 -321q0 -232 -150 -369q-145 -133 -379 -133q-225 0 -359 139t-134 365q0 260 243 631l232 354h350z
" />
    <glyph glyph-name="seven" unicode="7" horiz-adv-x="1255" 
d="M201 0l585 1204h-659v246h1044v-92l-657 -1358h-313z" />
    <glyph glyph-name="eight" unicode="8" horiz-adv-x="1255" 
d="M872 774q127 -38 200 -144q69 -101 69 -237q0 -217 -155 -331q-138 -101 -363 -101q-222 0 -362 100q-159 113 -159 326q0 139 69 241q72 106 202 146q-217 92 -217 316q0 187 144 294q129 95 323 95q200 0 327 -98q140 -108 140 -302q0 -221 -218 -305zM625 1241
q-82 0 -132 -42q-53 -46 -53 -126q0 -81 51 -126q48 -44 130 -44q184 0 184 168q0 80 -49.5 125t-130.5 45zM623 207q103 0 163 56.5t60 158.5q0 103 -59.5 160t-163.5 57q-103 0 -164.5 -57.5t-61.5 -159.5q0 -101 62 -158t164 -57z" />
    <glyph glyph-name="nine" unicode="9" horiz-adv-x="1255" 
d="M856 991q0 105 -59.5 168.5t-163.5 63.5q-102 0 -162.5 -65t-60.5 -167q0 -109 60 -172t169 -63q100 0 160 69q57 65 57 166zM733 567q-46 -23 -87 -33t-101 -10q-187 0 -305.5 126.5t-118.5 326.5q0 231 149 368q144 134 377 134q226 0 361 -137t135 -363
q0 -265 -246 -633l-231 -346h-351z" />
    <glyph glyph-name="colon" unicode=":" horiz-adv-x="688" 
d="M172 797q0 72 50 121t122 49t121 -49t49 -121q0 -73 -49 -122.5t-121 -49.5q-71 0 -121.5 50.5t-50.5 121.5zM172 143q0 72 50 121t122 49t121 -49t49 -121t-49 -122t-121 -50q-70 0 -121 51t-51 121z" />
    <glyph glyph-name="semicolon" unicode=";" horiz-adv-x="688" 
d="M264 797q0 71 50.5 120.5t121.5 49.5q73 0 122.5 -49t49.5 -121t-50 -122t-122 -50q-71 0 -121.5 50.5t-50.5 121.5zM80 -332l190 627h310l-310 -627h-190z" />
    <glyph glyph-name="less" unicode="&#x3c;" horiz-adv-x="1706" 
d="M1442 1194v-219l-893 -365l893 -364v-219l-1178 485v199z" />
    <glyph glyph-name="equal" unicode="=" horiz-adv-x="1706" 
d="M254 496h1198v-199h-1198v199zM254 926h1198v-199h-1198v199z" />
    <glyph glyph-name="greater" unicode="&#x3e;" horiz-adv-x="1706" 
d="M264 1194l1178 -483v-199l-1178 -485v219l895 364l-895 365v219z" />
    <glyph glyph-name="question" unicode="?" horiz-adv-x="1186" 
d="M397 133q0 71 50.5 120.5t121.5 49.5q73 0 122.5 -49t49.5 -121t-50 -122t-122 -50q-70 0 -121 51t-51 121zM707 428h-275v428h88q102 0 158.5 59t56.5 162q0 197 -162 197q-77 0 -120 -48q-49 -54 -43 -141l2 -30h-283v32q0 194 136 306q126 104 325 104
q202 0 320 -114.5t118 -315.5q0 -312 -321 -381v-258z" />
    <glyph glyph-name="at" unicode="@" horiz-adv-x="2048" 
d="M1167 272q-105 -163 -297 -163q-323 0 -323 340q0 224 127 387q138 176 356 176q159 0 236 -131l53 98h178l-154 -639q0 -33 24.5 -51.5t70.5 -18.5q40 0 81.5 20.5t79.5 55.5q175 164 175 422q0 260 -208 412q-187 137 -456 137q-284 0 -483 -135q-353 -239 -353 -660
q0 -322 223 -504q208 -170 537 -170q336 0 604 191l82 -117q-311 -231 -682 -231q-390 0 -639 192q-309 238 -309 637q0 343 207 594q303 367 819 367q350 0 576 -174q268 -206 268 -543t-254 -543q-142 -115 -324 -115q-215 0 -215 166zM1217 700q-24 166 -175 166
q-134 0 -215 -151q-67 -125 -67 -271q0 -188 158 -188q90 0 159 71q63 63 86 156z" />
    <glyph glyph-name="A" unicode="A" horiz-adv-x="1460" 
d="M922 557l-164 473l-18 72l-23 125q-15 -86 -25 -128l-18 -75l-158 -467h406zM-10 0l557 1464h358l565 -1464h-356l-119 311h-567l-102 -311h-336z" />
    <glyph glyph-name="B" unicode="B" horiz-adv-x="1223" 
d="M477 244h123q240 0 240 202q0 191 -236 191h-127v-393zM477 879h70q123 0 179 27q81 39 81 147q0 105 -80 143q-55 27 -174 27h-76v-344zM164 0v1464h274q205 0 310 -17t172 -54q178 -99 178 -310q0 -259 -307 -313q358 -52 358 -352q0 -231 -195 -336q-83 -45 -190 -63
q-111 -19 -361 -19h-239z" />
    <glyph glyph-name="C" unicode="C" horiz-adv-x="1470" 
d="M1343 1083q-138 123 -297 154q-52 10 -112 10q-235 0 -373.5 -140.5t-138.5 -375.5q0 -228 126 -363q129 -139 355 -139q254 0 438 170l-2 -321q-196 -117 -440 -117q-345 0 -569 212q-230 216 -230 558q0 343 233 558q226 210 572 210q249 0 449 -102z" />
    <glyph glyph-name="D" unicode="D" horiz-adv-x="1542" 
d="M477 264h174q245 0 358 111.5t113 355.5t-113.5 355.5t-357.5 111.5h-174v-934zM164 0v1464h399q235 0 371 -32.5t240 -110.5q270 -201 270 -592q0 -393 -275 -594q-99 -72 -221.5 -103.5t-359.5 -31.5h-424z" />
    <glyph glyph-name="E" unicode="E" horiz-adv-x="1169" 
d="M164 0v1464h862v-264h-549v-301h549v-266h-549v-367h549v-266h-862z" />
    <glyph glyph-name="F" unicode="F" horiz-adv-x="1104" 
d="M164 0v1464h862v-264h-549v-301h549v-266h-549v-633h-313z" />
    <glyph glyph-name="G" unicode="G" horiz-adv-x="1645" 
d="M891 772h667l2 -28l1 -46q7 -321 -188 -533q-188 -204 -486 -204q-340 0 -561.5 215.5t-221.5 554.5q0 336 223 551t560 215q357 0 594 -299l-211 -156q-147 185 -367 185t-350 -139q-127 -135 -127 -357q0 -218 126 -354q129 -141 345 -141q137 0 233 61q113 71 113 201
v16h-352v258z" />
    <glyph glyph-name="H" unicode="H" horiz-adv-x="1587" 
d="M164 0v1464h313v-587h635v587h313v-1464h-313v612h-635v-612h-313z" />
    <glyph glyph-name="I" unicode="I" horiz-adv-x="653" 
d="M170 0v1464h313v-1464h-313z" />
    <glyph glyph-name="J" unicode="J" horiz-adv-x="909" 
d="M758 1464v-964q0 -162 -13 -242q-30 -184 -171 -254q-86 -43 -209 -43q-310 0 -365 303l227 108q16 -139 111 -139q77 0 98 88q8 34 8 150v993h314z" />
    <glyph glyph-name="K" unicode="K" horiz-adv-x="1327" 
d="M164 0v1464h313v-663l488 663h362l-524 -667l543 -797h-377l-492 766v-766h-313z" />
    <glyph glyph-name="L" unicode="L" horiz-adv-x="1010" 
d="M164 0v1464h313v-1198h500v-266h-813z" />
    <glyph glyph-name="M" unicode="M" horiz-adv-x="1819" 
d="M37 0l223 1464h328l282 -862q8 -24 19 -79l10 -55q5 -26 10 -64q14 131 37 200l287 860h323l224 -1464h-297l-127 1158q0 15 2 21q-14 -85 -29 -153q-11 -50 -24 -90l-310 -936h-176l-323 1008l-37 172v-43q0 -101 -18 -250l-1 -4l-106 -883h-297z" />
    <glyph glyph-name="N" unicode="N" horiz-adv-x="1708" 
d="M164 0v1464h325l648 -852q53 -69 131 -256q-11 77 -16 129q0 27 -2.5 80t-2.5 80v819h299v-1464h-307l-666 868q-52 68 -131 258q13 -73 16 -128q5 -80 5 -162v-836h-299z" />
    <glyph glyph-name="O" unicode="O" horiz-adv-x="1763" 
d="M1663 729q0 -325 -228 -543q-236 -225 -552 -225q-279 0 -498 176q-285 229 -285 592q0 324 226 542q234 226 557 226q232 0 433 -130t289 -342q58 -140 58 -296zM883 240q203 0 333 144q125 139 125 345q0 204 -126 345q-131 147 -332 147q-203 0 -334 -146
q-127 -141 -127 -346q0 -209 125 -347q129 -142 336 -142z" />
    <glyph glyph-name="P" unicode="P" horiz-adv-x="1139" 
d="M479 803h45q124 0 182 49q62 53 62 174q0 207 -244 207h-45v-430zM164 0v1464h360q563 0 563 -450q0 -225 -152 -345q-139 -110 -370 -110h-86v-559h-315z" />
    <glyph glyph-name="Q" unicode="Q" horiz-adv-x="1763" 
d="M1092 496l108 -127q141 145 141 360q0 204 -126 345q-131 147 -332 147q-203 0 -334 -146q-127 -141 -127 -346q0 -210 129 -349q140 -152 326 -140l47 3q23 1 73 11l-211 242h306zM1655 -170h-312l-159 188q-212 -53 -307 -53q-319 0 -549 223t-230 543q0 235 133 428.5
t351 280.5q145 57 301 57q322 0 552 -222.5t230 -543.5q0 -349 -279 -586z" />
    <glyph glyph-name="R" unicode="R" horiz-adv-x="1241" 
d="M1223 0h-361l-385 684v-684h-313v1464h448q533 0 533 -415q0 -150 -89 -256.5t-237 -126.5zM477 840h47q152 0 211 23q101 39 101 163q0 127 -99 171q-64 28 -213 28h-47v-385z" />
    <glyph glyph-name="S" unicode="S" horiz-adv-x="1147" 
d="M70 186l174 197q33 -81 107 -127.5t163 -46.5q100 0 165 45q73 51 73 147q0 101 -213 207l-109 54q-185 92 -265 195q-75 97 -75 228q0 199 164 313q144 101 352 101q130 0 228.5 -47t171.5 -145l-185 -177q-66 127 -219 127q-86 0 -142 -40q-65 -45 -65 -127
q0 -114 226 -212l69 -30q180 -78 275 -191q90 -108 90 -245q0 -217 -154 -339q-141 -112 -364 -112q-344 0 -467 225z" />
    <glyph glyph-name="T" unicode="T" horiz-adv-x="1110" 
d="M711 1198v-1198h-314v1198h-358v266h1032v-266h-360z" />
    <glyph glyph-name="U" unicode="U" horiz-adv-x="1583" 
d="M1423 1464v-911q0 -592 -630 -592q-635 0 -635 592v911h311v-862q0 -364 319 -364q324 0 324 364v862h311z" />
    <glyph glyph-name="V" unicode="V" horiz-adv-x="1370" 
d="M535 0l-541 1464h346l310 -1017l36 -173q21 168 59 287l289 903h342l-545 -1464h-296z" />
    <glyph glyph-name="W" unicode="W" horiz-adv-x="2058" 
d="M1182 1464l217 -794q41 -150 73 -358q0 82 13 179q10 75 35 179l190 794h309l-383 -1464h-301l-262 934q-19 69 -30 129q-15 84 -15 135q0 -46 -16 -151q-7 -43 -27 -113l-264 -934h-301l-383 1464h313l193 -813q17 -73 36 -248q5 -47 5 -81q9 68 70 322l5 21l215 799
h308z" />
    <glyph glyph-name="X" unicode="X" horiz-adv-x="1229" 
d="M549 1081q44 -81 63 -139q11 32 29 71q10 20 39 74l207 377h332l-437 -698l451 -766h-338l-217 406q-23 44 -36 77q-4 12 -10.5 31t-17.5 53q-32 -98 -67 -164l-217 -403h-336l452 766l-440 698h334z" />
    <glyph glyph-name="Y" unicode="Y" horiz-adv-x="1241" 
d="M465 0v668l-496 796h367l217 -401q20 -37 33 -76l35 -106q26 101 71 184l215 399h365l-494 -796v-668h-313z" />
    <glyph glyph-name="Z" unicode="Z" horiz-adv-x="1298" 
d="M1235 0h-1229l758 1214h-680v250h1182l-758 -1212h727v-252z" />
    <glyph glyph-name="bracketleft" unicode="[" horiz-adv-x="688" 
d="M182 1497h451v-231h-199v-1483h199v-234h-451v1948z" />
    <glyph glyph-name="backslash" unicode="\" horiz-adv-x="930" 
d="M717 -190l-717 1687h213l717 -1687h-213z" />
    <glyph glyph-name="bracketright" unicode="]" horiz-adv-x="688" 
d="M506 1497v-1948h-451v234h199v1483h-199v231h451z" />
    <glyph glyph-name="asciicircum" unicode="^" horiz-adv-x="2048" 
d="M897 1460h252l481 -561h-235l-371 371l-373 -371h-235z" />
    <glyph glyph-name="underscore" unicode="_" 
d="M0 -279h1024v-204h-1024v204z" />
    <glyph glyph-name="grave" unicode="`" 
d="M219 1495h258l197 -369h-142z" />
    <glyph glyph-name="a" unicode="a" horiz-adv-x="1251" 
d="M862 492q0 124 -60 201q-66 85 -186 85q-123 0 -189 -83q-60 -76 -60 -203q0 -126 59 -200q65 -81 188 -81q124 0 189 80q59 74 59 201zM1122 0h-276l4 141q-112 -180 -338 -180q-211 0 -329 163q-105 145 -105 365q0 231 104 370q117 155 340 155q219 0 330 -195v162
h270v-981z" />
    <glyph glyph-name="b" unicode="b" horiz-adv-x="1262" 
d="M399 492q0 -126 60 -200q65 -81 188 -81t188 81q60 74 60 200t-61 203q-66 83 -189 83q-120 0 -186 -85q-60 -77 -60 -201zM139 0v1550h273v-570q0 -42 -4 -81l-9 -88q133 203 340 203q224 0 341 -155q104 -138 104 -370q0 -220 -104 -365q-117 -163 -328 -163
q-226 0 -338 180l2 -141h-277z" />
    <glyph glyph-name="c" unicode="c" horiz-adv-x="938" 
d="M862 29q-113 -68 -262 -68q-234 0 -379 148t-145 383q0 232 147.5 377t380.5 145q156 0 258 -62l-2 -286q-96 96 -229 96q-122 0 -193 -73t-71 -195q0 -124 74 -197.5t198 -73.5q135 0 221 103z" />
    <glyph glyph-name="d" unicode="d" horiz-adv-x="1262" 
d="M862 492q0 124 -60 201q-66 85 -186 85q-123 0 -189 -82q-60 -76 -60 -202t59 -201q65 -82 188 -82q124 0 189 80q59 74 59 201zM1122 0h-276l4 141q-112 -180 -338 -180q-211 0 -329 163q-105 145 -105 365q0 232 104 371q116 156 340 156q203 0 340 -204l-8 79l-2 100
v559h270v-1550z" />
    <glyph glyph-name="e" unicode="e" horiz-adv-x="1174" 
d="M815 592q-24 188 -219 188t-227 -188h446zM1097 420h-737q34 -211 240 -211q153 0 229 121l230 -115q-156 -254 -465 -254q-238 0 -377 142.5t-139 381.5q0 231 144 380t374 149q234 0 370 -139q144 -148 136 -381l-1 -29z" />
    <glyph glyph-name="f" unicode="f" horiz-adv-x="678" 
d="M174 0v758h-127v223h127v221q0 201 96 287q91 82 295 82q28 0 53 -5q41 -6 80 -16v-227q-50 27 -100 27q-139 0 -139 -176v-193h182v-223h-182v-758h-285z" />
    <glyph glyph-name="g" unicode="g" horiz-adv-x="1262" 
d="M1120 16q0 -123 -9 -174q-16 -92 -73 -153q-126 -135 -407 -135q-357 0 -461 171q-37 61 -37 136h313q12 -111 185 -111q123 0 174 71q45 61 45 189v140q-113 -179 -328 -179q-216 0 -336 158q-108 142 -108 365q0 229 105 367q117 153 339 153q104 0 189 -49.5
t141 -145.5v162h268v-965zM862 492q0 123 -61 198q-66 82 -185 82q-122 0 -188 -80q-61 -75 -61 -200q0 -126 60 -198q64 -79 187 -79q122 0 188 79q60 73 60 198z" />
    <glyph glyph-name="h" unicode="h" horiz-adv-x="1266" 
d="M139 0v1550h279l-3 -643l-9 -88q166 195 374 195q228 0 314 -156q41 -74 41 -254v-604h-285v485q0 146 -24 203q-40 94 -162 94q-120 0 -191 -94q-26 -34 -38 -80q-11 -41 -11 -137v-471h-285z" />
    <glyph glyph-name="i" unicode="i" horiz-adv-x="584" 
d="M125 1384q0 68 49 117t117 49q70 0 119 -48.5t49 -117.5t-49 -118t-119 -49q-67 0 -116.5 49.5t-49.5 117.5zM150 0v981h284v-981h-284z" />
    <glyph glyph-name="j" unicode="j" horiz-adv-x="584" 
d="M125 1384q0 68 49 117t117 49q70 0 119 -48.5t49 -117.5t-49 -118t-119 -49q-67 0 -116.5 49.5t-49.5 117.5zM150 -446v1427h284v-1427h-284z" />
    <glyph glyph-name="k" unicode="k" horiz-adv-x="1157" 
d="M139 1550h285v-1003l364 434h342l-395 -434l434 -547h-352l-393 520v-520h-285v1550z" />
    <glyph glyph-name="l" unicode="l" horiz-adv-x="584" 
d="M150 0v1550h284v-1550h-284z" />
    <glyph glyph-name="m" unicode="m" horiz-adv-x="1862" 
d="M420 0h-285v981h285v-154q134 187 330 187q242 0 307 -201q138 201 344 201q208 0 289 -154q39 -74 39 -256v-604h-285v485q0 143 -18 197q-34 100 -146 100q-129 0 -177 -119q-32 -79 -32 -231v-432h-285v485q0 136 -16 190q-32 105 -135 105q-131 0 -181 -116
q-34 -79 -34 -232v-432z" />
    <glyph glyph-name="n" unicode="n" horiz-adv-x="1266" 
d="M139 0v981h279v-154q150 187 362 187q229 0 314 -156q41 -75 41 -254v-604h-285v485q0 146 -24 203q-40 94 -162 94q-120 0 -191 -94q-26 -34 -38 -80q-11 -41 -11 -137v-471h-285z" />
    <glyph glyph-name="o" unicode="o" horiz-adv-x="1247" 
d="M881 489q0 120 -69 191.5t-189 71.5q-119 0 -187.5 -71.5t-68.5 -191.5t68.5 -192t187.5 -72q118 0 188 73t70 191zM1171 487q0 -232 -156.5 -379t-389.5 -147q-234 0 -390 145q-159 149 -159 381q0 230 160 380q157 147 389 147q235 0 389 -145q157 -149 157 -382z" />
    <glyph glyph-name="p" unicode="p" horiz-adv-x="1262" 
d="M399 492q0 -126 60 -200q65 -81 188 -81t188 81q60 74 60 200t-61 203q-66 83 -189 83q-120 0 -186 -85q-60 -77 -60 -201zM139 -446v1427h273v-162q81 143 225 182q48 13 102 13q223 0 340 -155q105 -139 105 -370q0 -220 -104 -365q-117 -163 -328 -163
q-226 0 -338 180l7 -81l3 -99v-407h-285z" />
    <glyph glyph-name="q" unicode="q" horiz-adv-x="1262" 
d="M862 492q0 124 -60 201q-66 85 -186 85q-123 0 -189 -83q-60 -76 -60 -203q0 -126 59 -200q65 -81 188 -81q124 0 189 80q59 74 59 201zM1122 -446h-284l3 499l9 88q-112 -180 -338 -180q-211 0 -329 163q-105 145 -105 365q0 231 104 370q117 155 340 155
q219 0 330 -195v162h270v-1427z" />
    <glyph glyph-name="r" unicode="r" horiz-adv-x="834" 
d="M414 729q63 213 213 267q50 18 110 18q29 0 89 -10l18 -3l-43 -306q-71 26 -133 26q-138 0 -195 -78q-49 -67 -49 -211v-432h-285v981h281z" />
    <glyph glyph-name="s" unicode="s" horiz-adv-x="934" 
d="M43 172l219 113q23 -123 178 -123q150 0 150 96q0 68 -142 119l-70 25q-170 61 -240 131q-66 66 -66 163q0 159 131 246q113 76 280 76q276 0 369 -203l-209 -104q-33 112 -164 112q-141 0 -141 -94q0 -75 194 -136l35 -11q297 -93 297 -303q0 -162 -134 -247
q-112 -71 -284 -71q-134 0 -237 46q-124 55 -166 165z" />
    <glyph glyph-name="t" unicode="t" horiz-adv-x="633" 
d="M174 0v758h-137v223h137v326h285v-326h137v-223h-137v-758h-285z" />
    <glyph glyph-name="u" unicode="u" horiz-adv-x="1268" 
d="M418 981v-516q0 -123 45 -179q51 -63 170 -63q118 0 169 63q46 57 46 179v516h285v-516q0 -257 -120 -380.5t-376 -123.5q-259 0 -380.5 122.5t-121.5 381.5v516h283z" />
    <glyph glyph-name="v" unicode="v" horiz-adv-x="1053" 
d="M381 0l-399 981h329l166 -510q19 -58 32 -114q4 -20 11 -66l6 -39q20 134 52 229l167 500h324l-403 -981h-285z" />
    <glyph glyph-name="w" unicode="w" horiz-adv-x="1673" 
d="M991 981l152 -561l24 -156l22 97q1 6 34 114l153 506h310l-340 -981h-304l-160 553q-35 121 -48 188q-14 -78 -25 -122l-10 -42q-8 -36 -17 -65l-151 -512h-303l-340 981h311l183 -607l22 -109q13 108 45 227l131 489h311z" />
    <glyph glyph-name="x" unicode="x" horiz-adv-x="1020" 
d="M319 0h-337l348 498l-330 483h356l97 -182q8 -15 17 -35q25 -56 42 -115q22 76 66 152l104 180h338l-336 -477l354 -504h-354l-115 201l-36 75q-10 22 -25 76q-9 -37 -26 -76q-13 -29 -42 -77z" />
    <glyph glyph-name="y" unicode="y" horiz-adv-x="1053" 
d="M381 76l-395 905h329l170 -449q18 -47 28 -97q8 -39 17 -121q14 89 62 229l149 438h326l-584 -1427h-315z" />
    <glyph glyph-name="z" unicode="z" horiz-adv-x="985" 
d="M940 0h-940l520 758h-457v223h889l-514 -758h502v-223z" />
    <glyph glyph-name="braceleft" unicode="{" 
d="M883 1477v-209l-47 2q-95 4 -133.5 -36.5t-38.5 -164.5v-240q0 -137 -38 -198q-44 -70 -169 -101q125 -29 169 -99q38 -61 38 -198v-241q0 -123 35 -161q39 -42 137 -38l47 2v-209l-76 -2q-85 -2 -166 12q-156 28 -196 128q-23 59 -23 200v252q0 135 -51 194
q-57 64 -172 58l-41 -2v209l41 -2q115 -6 171 58q52 59 52 196v250q0 145 23 201q24 60 81 92q38 22 113 36q79 15 168 13z" />
    <glyph glyph-name="bar" unicode="|" 
d="M410 1565h206v-2048h-206v2048z" />
    <glyph glyph-name="braceright" unicode="}" 
d="M143 1477h68q201 0 289 -50q69 -39 91 -127q13 -52 13 -163v-252q0 -136 51 -194q56 -64 172 -58l41 2v-209h-37q-128 0 -180 -62q-47 -56 -47 -188v-252q0 -113 -12 -163q-22 -90 -92 -128q-41 -22 -112 -36q-80 -15 -169 -13l-76 2v209l47 -2q96 -4 136 38
q36 39 36 161v239q0 137 38 198q44 72 169 101q-125 29 -169 101q-38 61 -38 198v242q0 121 -35 160q-40 43 -137 39l-47 -2v209z" />
    <glyph glyph-name="asciitilde" unicode="~" horiz-adv-x="1706" 
d="M1530 803v-221q-204 -138 -379 -138q-46 0 -90 8q-52 8 -94 23l-71 25q-213 75 -333 75q-83 0 -178.5 -38.5t-206.5 -118.5v221q210 143 387 143q59 0 291 -58l4 -1l55 -19q159 -55 240 -55q83 0 175 37q89 36 200 117z" />
    <glyph glyph-name="Adieresis" unicode="&#xc4;" horiz-adv-x="1460" 
d="M922 557l-164 473l-18 72l-23 125q-15 -86 -25 -128l-18 -75l-158 -467h406zM-10 0l557 1464h358l565 -1464h-356l-119 311h-567l-102 -311h-336zM788 1786q0 52 39.5 90.5t91.5 38.5q54 0 91.5 -37.5t37.5 -91.5q0 -56 -36.5 -93.5t-92.5 -37.5t-93.5 37.5t-37.5 93.5z
M414 1786q0 52 39.5 90.5t91.5 38.5q53 0 91 -38t38 -91q0 -56 -36.5 -93.5t-92.5 -37.5t-93.5 37.5t-37.5 93.5z" />
    <glyph glyph-name="Aring" unicode="&#xc5;" horiz-adv-x="1460" 
d="M608 1712q0 -49 35 -84t84 -35q50 0 84.5 34.5t34.5 84.5q0 48 -34.5 83.5t-84.5 35.5q-49 0 -84 -35t-35 -84zM674 1036l-158 -479h406l-164 483l-21 82l-20 115l-24 -124q-9 -47 -19 -77zM-10 0l557 1464h121q-94 18 -147.5 84t-53.5 164q0 108 76 184t184 76t184 -76
t76 -184q0 -198 -192 -248h110l565 -1464h-356l-119 311h-567l-102 -311h-336z" />
    <glyph glyph-name="Ccedilla" unicode="&#xc7;" horiz-adv-x="1470" 
d="M899 -39v-51h15q235 0 235 -193q0 -198 -266 -198q-78 0 -190 24q-38 8 -76 19v127q109 -28 206 -40q30 -3 52 -3q100 0 100 75q0 68 -121 68h-32q-16 0 -25 -2v179q-282 27 -473 212q-224 216 -224 553q0 343 233 558q226 210 572 210q249 0 449 -102l-11 -314
q-138 123 -297 154q-52 10 -112 10q-235 0 -373.5 -140.5t-138.5 -375.5q0 -228 126 -363q129 -139 355 -139q254 0 438 170l-2 -321q-196 -117 -440 -117z" />
    <glyph glyph-name="Eacute" unicode="&#xc9;" horiz-adv-x="1169" 
d="M164 0v1464h862v-264h-549v-301h549v-266h-549v-367h549v-266h-862zM885 1972l-313 -369h-142l197 369h258z" />
    <glyph glyph-name="Ntilde" unicode="&#xd1;" horiz-adv-x="1708" 
d="M164 0v1464h325l648 -852q53 -69 131 -256q-11 77 -16 129q0 27 -2.5 80t-2.5 80v819h299v-1464h-307l-666 868q-52 68 -131 258q13 -73 16 -128q5 -80 5 -162v-836h-299zM1171 1923q-52 -242 -208 -242h-27q-8 2 -12 2l-36 9l-87 26l-36 8l-30 2q-31 2 -53.5 -17.5
t-34.5 -59.5h-110q49 235 204 235h23q15 -2 43 -8q14 -5 20 -6l118 -31l30 -2q32 -2 53 19t33 65h110z" />
    <glyph glyph-name="Odieresis" unicode="&#xd6;" horiz-adv-x="1763" 
d="M1663 729q0 -325 -228 -543q-236 -225 -552 -225q-279 0 -498 176q-285 229 -285 592q0 324 226 542q234 226 557 226q232 0 433 -130t289 -342q58 -140 58 -296zM883 240q203 0 333 144q125 139 125 345q0 204 -126 345q-131 147 -332 147q-203 0 -334 -146
q-127 -141 -127 -346q0 -209 125 -347q129 -142 336 -142zM940 1786q0 52 39.5 90.5t91.5 38.5q54 0 91.5 -37.5t37.5 -91.5q0 -56 -36.5 -93.5t-92.5 -37.5t-93.5 37.5t-37.5 93.5zM566 1786q0 52 39.5 90.5t91.5 38.5q53 0 91 -38t38 -91q0 -56 -36.5 -93.5t-92.5 -37.5
t-93.5 37.5t-37.5 93.5z" />
    <glyph glyph-name="Udieresis" unicode="&#xdc;" horiz-adv-x="1583" 
d="M1423 1464v-911q0 -592 -630 -592q-635 0 -635 592v911h311v-862q0 -364 319 -364q324 0 324 364v862h311zM850 1786q0 52 39.5 90.5t91.5 38.5q54 0 91.5 -37.5t37.5 -91.5q0 -56 -36.5 -93.5t-92.5 -37.5t-93.5 37.5t-37.5 93.5zM476 1786q0 52 39.5 90.5t91.5 38.5
q53 0 91 -38t38 -91q0 -56 -36.5 -93.5t-92.5 -37.5t-93.5 37.5t-37.5 93.5z" />
    <glyph glyph-name="aacute" unicode="&#xe1;" horiz-adv-x="1251" 
d="M862 492q0 124 -60 201q-66 85 -186 85q-123 0 -189 -83q-60 -76 -60 -203q0 -126 59 -200q65 -81 188 -81q124 0 189 80q59 74 59 201zM1122 0h-276l4 141q-112 -180 -338 -180q-211 0 -329 163q-105 145 -105 365q0 231 104 370q117 155 340 155q219 0 330 -195v162
h270v-981zM938 1495l-313 -369h-142l197 369h258z" />
    <glyph glyph-name="agrave" unicode="&#xe0;" horiz-adv-x="1251" 
d="M862 492q0 124 -60 201q-66 85 -186 85q-123 0 -189 -83q-60 -76 -60 -203q0 -126 59 -200q65 -81 188 -81q124 0 189 80q59 74 59 201zM1122 0h-276l4 141q-112 -180 -338 -180q-211 0 -329 163q-105 145 -105 365q0 231 104 370q117 155 340 155q219 0 330 -195v162
h270v-981zM352 1495h258l197 -369h-142z" />
    <glyph glyph-name="acircumflex" unicode="&#xe2;" horiz-adv-x="1251" 
d="M862 492q0 124 -60 201q-66 85 -186 85q-123 0 -189 -83q-60 -76 -60 -203q0 -126 59 -200q65 -81 188 -81q124 0 189 80q59 74 59 201zM1122 0h-276l4 141q-112 -180 -338 -180q-211 0 -329 163q-105 145 -105 365q0 231 104 370q117 155 340 155q219 0 330 -195v162
h270v-981zM330 1126l196 369h238l196 -369h-141l-174 217l-176 -217h-139z" />
    <glyph glyph-name="adieresis" unicode="&#xe4;" horiz-adv-x="1251" 
d="M862 492q0 124 -60 201q-66 85 -186 85q-123 0 -189 -83q-60 -76 -60 -203q0 -126 59 -200q65 -81 188 -81q124 0 189 80q59 74 59 201zM1122 0h-276l4 141q-112 -180 -338 -180q-211 0 -329 163q-105 145 -105 365q0 231 104 370q117 155 340 155q219 0 330 -195v162
h270v-981zM702 1309q0 52 39.5 90.5t91.5 38.5q54 0 91.5 -37.5t37.5 -91.5q0 -56 -36.5 -93.5t-92.5 -37.5t-93.5 37.5t-37.5 93.5zM328 1309q0 52 39.5 90.5t91.5 38.5q53 0 91 -38t38 -91q0 -56 -36.5 -93.5t-92.5 -37.5t-93.5 37.5t-37.5 93.5z" />
    <glyph glyph-name="atilde" unicode="&#xe3;" horiz-adv-x="1251" 
d="M862 492q0 124 -60 201q-66 85 -186 85q-123 0 -189 -83q-60 -76 -60 -203q0 -126 59 -200q65 -81 188 -81q124 0 189 80q59 74 59 201zM1122 0h-276l4 141q-112 -180 -338 -180q-211 0 -329 163q-105 145 -105 365q0 231 104 370q117 155 340 155q219 0 330 -195v162
h270v-981zM962 1446q-52 -242 -208 -242h-27q-8 2 -12 2l-36 9l-87 26l-36 8l-30 2q-31 2 -53.5 -17.5t-34.5 -59.5h-110q49 235 204 235h23q15 -2 43 -8q14 -5 20 -6l118 -31l30 -2q32 -2 53 19t33 65h110z" />
    <glyph glyph-name="aring" unicode="&#xe5;" horiz-adv-x="1251" 
d="M506 1343q0 -52 35.5 -87t87.5 -35q49 0 86 36.5t37 85.5q0 50 -36.5 85.5t-86.5 35.5q-52 0 -87.5 -34.5t-35.5 -86.5zM362 1343q0 112 77.5 189.5t189.5 77.5q110 0 188 -78.5t78 -188.5q0 -112 -77 -189t-189 -77t-189.5 77t-77.5 189zM862 492q0 124 -60 201
q-66 85 -186 85q-123 0 -189 -83q-60 -76 -60 -203q0 -126 59 -200q65 -81 188 -81q124 0 189 80q59 74 59 201zM1122 0h-276l4 141q-112 -180 -338 -180q-211 0 -329 163q-105 145 -105 365q0 231 104 370q117 155 340 155q219 0 330 -195v162h270v-981z" />
    <glyph glyph-name="ccedilla" unicode="&#xe7;" horiz-adv-x="938" 
d="M477 -27q-150 29 -255 135q-146 147 -146 384q0 232 147.5 377t380.5 145q156 0 258 -62l-2 -286q-96 96 -229 96q-122 0 -193 -73t-71 -195q0 -124 74 -197.5t198 -73.5q135 0 221 103l2 -297q-113 -68 -262 -68h-21v-51h15q235 0 235 -193q0 -198 -266 -198
q-78 0 -190 24q-38 8 -76 19v127q109 -28 206 -40q30 -3 52 -3q100 0 100 75q0 68 -121 68h-32q-16 0 -25 -2v186z" />
    <glyph glyph-name="eacute" unicode="&#xe9;" horiz-adv-x="1174" 
d="M815 592q-24 188 -219 188t-227 -188h446zM1097 420h-737q34 -211 240 -211q153 0 229 121l230 -115q-156 -254 -465 -254q-238 0 -377 142.5t-139 381.5q0 231 144 380t374 149q234 0 370 -139q144 -148 136 -381l-1 -29zM881 1495l-313 -369h-142l197 369h258z" />
    <glyph glyph-name="egrave" unicode="&#xe8;" horiz-adv-x="1174" 
d="M815 592q-24 188 -219 188t-227 -188h446zM1097 420h-737q34 -211 240 -211q153 0 229 121l230 -115q-156 -254 -465 -254q-238 0 -377 142.5t-139 381.5q0 231 144 380t374 149q234 0 370 -139q144 -148 136 -381l-1 -29zM295 1495h258l197 -369h-142z" />
    <glyph glyph-name="ecircumflex" unicode="&#xea;" horiz-adv-x="1174" 
d="M815 592q-24 188 -219 188t-227 -188h446zM1097 420h-737q34 -211 240 -211q153 0 229 121l230 -115q-156 -254 -465 -254q-238 0 -377 142.5t-139 381.5q0 231 144 380t374 149q234 0 370 -139q144 -148 136 -381l-1 -29zM273 1126l196 369h238l196 -369h-141l-174 217
l-176 -217h-139z" />
    <glyph glyph-name="edieresis" unicode="&#xeb;" horiz-adv-x="1174" 
d="M815 592q-24 188 -219 188t-227 -188h446zM1097 420h-737q34 -211 240 -211q153 0 229 121l230 -115q-156 -254 -465 -254q-238 0 -377 142.5t-139 381.5q0 231 144 380t374 149q234 0 370 -139q144 -148 136 -381l-1 -29zM645 1309q0 52 39.5 90.5t91.5 38.5
q54 0 91.5 -37.5t37.5 -91.5q0 -56 -36.5 -93.5t-92.5 -37.5t-93.5 37.5t-37.5 93.5zM271 1309q0 52 39.5 90.5t91.5 38.5q53 0 91 -38t38 -91q0 -56 -36.5 -93.5t-92.5 -37.5t-93.5 37.5t-37.5 93.5z" />
    <glyph glyph-name="iacute" unicode="&#xed;" horiz-adv-x="584" 
d="M150 0v981h284v-981h-284zM586 1495l-313 -369h-142l197 369h258z" />
    <glyph glyph-name="igrave" unicode="&#xec;" horiz-adv-x="584" 
d="M150 0v981h284v-981h-284zM0 1495h258l197 -369h-142z" />
    <glyph glyph-name="icircumflex" unicode="&#xee;" horiz-adv-x="584" 
d="M150 0v981h284v-981h-284zM-22 1126l196 369h238l196 -369h-141l-174 217l-176 -217h-139z" />
    <glyph glyph-name="idieresis" unicode="&#xef;" horiz-adv-x="584" 
d="M150 0v981h284v-981h-284zM350 1309q0 52 39.5 90.5t91.5 38.5q54 0 91.5 -37.5t37.5 -91.5q0 -56 -36.5 -93.5t-92.5 -37.5t-93.5 37.5t-37.5 93.5zM-24 1309q0 52 39.5 90.5t91.5 38.5q53 0 91 -38t38 -91q0 -56 -36.5 -93.5t-92.5 -37.5t-93.5 37.5t-37.5 93.5z" />
    <glyph glyph-name="ntilde" unicode="&#xf1;" horiz-adv-x="1266" 
d="M139 0v981h279v-154q150 187 362 187q229 0 314 -156q41 -75 41 -254v-604h-285v485q0 146 -24 203q-40 94 -162 94q-120 0 -191 -94q-26 -34 -38 -80q-11 -41 -11 -137v-471h-285zM950 1446q-52 -242 -208 -242h-27q-8 2 -12 2l-36 9l-87 26l-36 8l-30 2
q-31 2 -53.5 -17.5t-34.5 -59.5h-110q49 235 204 235h23q15 -2 43 -8q14 -5 20 -6l118 -31l30 -2q32 -2 53 19t33 65h110z" />
    <glyph glyph-name="oacute" unicode="&#xf3;" horiz-adv-x="1247" 
d="M881 489q0 120 -69 191.5t-189 71.5q-119 0 -187.5 -71.5t-68.5 -191.5t68.5 -192t187.5 -72q118 0 188 73t70 191zM1171 487q0 -232 -156.5 -379t-389.5 -147q-234 0 -390 145q-159 149 -159 381q0 230 160 380q157 147 389 147q235 0 389 -145q157 -149 157 -382z
M918 1495l-313 -369h-142l197 369h258z" />
    <glyph glyph-name="ograve" unicode="&#xf2;" horiz-adv-x="1247" 
d="M881 489q0 120 -69 191.5t-189 71.5q-119 0 -187.5 -71.5t-68.5 -191.5t68.5 -192t187.5 -72q118 0 188 73t70 191zM1171 487q0 -232 -156.5 -379t-389.5 -147q-234 0 -390 145q-159 149 -159 381q0 230 160 380q157 147 389 147q235 0 389 -145q157 -149 157 -382z
M332 1495h258l197 -369h-142z" />
    <glyph glyph-name="ocircumflex" unicode="&#xf4;" horiz-adv-x="1247" 
d="M881 489q0 120 -69 191.5t-189 71.5q-119 0 -187.5 -71.5t-68.5 -191.5t68.5 -192t187.5 -72q118 0 188 73t70 191zM1171 487q0 -232 -156.5 -379t-389.5 -147q-234 0 -390 145q-159 149 -159 381q0 230 160 380q157 147 389 147q235 0 389 -145q157 -149 157 -382z
M310 1126l196 369h238l196 -369h-141l-174 217l-176 -217h-139z" />
    <glyph glyph-name="odieresis" unicode="&#xf6;" horiz-adv-x="1247" 
d="M881 489q0 120 -69 191.5t-189 71.5q-119 0 -187.5 -71.5t-68.5 -191.5t68.5 -192t187.5 -72q118 0 188 73t70 191zM1171 487q0 -232 -156.5 -379t-389.5 -147q-234 0 -390 145q-159 149 -159 381q0 230 160 380q157 147 389 147q235 0 389 -145q157 -149 157 -382z
M682 1309q0 52 39.5 90.5t91.5 38.5q54 0 91.5 -37.5t37.5 -91.5q0 -56 -36.5 -93.5t-92.5 -37.5t-93.5 37.5t-37.5 93.5zM308 1309q0 52 39.5 90.5t91.5 38.5q53 0 91 -38t38 -91q0 -56 -36.5 -93.5t-92.5 -37.5t-93.5 37.5t-37.5 93.5z" />
    <glyph glyph-name="otilde" unicode="&#xf5;" horiz-adv-x="1247" 
d="M881 489q0 120 -69 191.5t-189 71.5q-119 0 -187.5 -71.5t-68.5 -191.5t68.5 -192t187.5 -72q118 0 188 73t70 191zM1171 487q0 -232 -156.5 -379t-389.5 -147q-234 0 -390 145q-159 149 -159 381q0 230 160 380q157 147 389 147q235 0 389 -145q157 -149 157 -382z
M942 1446q-52 -242 -208 -242h-27q-8 2 -12 2l-36 9l-87 26l-36 8l-30 2q-31 2 -53.5 -17.5t-34.5 -59.5h-110q49 235 204 235h23q15 -2 43 -8q14 -5 20 -6l118 -31l30 -2q32 -2 53 19t33 65h110z" />
    <glyph glyph-name="uacute" unicode="&#xfa;" horiz-adv-x="1268" 
d="M418 981v-516q0 -123 45 -179q51 -63 170 -63q118 0 169 63q46 57 46 179v516h285v-516q0 -257 -120 -380.5t-376 -123.5q-259 0 -380.5 122.5t-121.5 381.5v516h283zM928 1495l-313 -369h-142l197 369h258z" />
    <glyph glyph-name="ugrave" unicode="&#xf9;" horiz-adv-x="1268" 
d="M418 981v-516q0 -123 45 -179q51 -63 170 -63q118 0 169 63q46 57 46 179v516h285v-516q0 -257 -120 -380.5t-376 -123.5q-259 0 -380.5 122.5t-121.5 381.5v516h283zM342 1495h258l197 -369h-142z" />
    <glyph glyph-name="ucircumflex" unicode="&#xfb;" horiz-adv-x="1268" 
d="M418 981v-516q0 -123 45 -179q51 -63 170 -63q118 0 169 63q46 57 46 179v516h285v-516q0 -257 -120 -380.5t-376 -123.5q-259 0 -380.5 122.5t-121.5 381.5v516h283zM320 1126l196 369h238l196 -369h-141l-174 217l-176 -217h-139z" />
    <glyph glyph-name="udieresis" unicode="&#xfc;" horiz-adv-x="1268" 
d="M418 981v-516q0 -123 45 -179q51 -63 170 -63q118 0 169 63q46 57 46 179v516h285v-516q0 -257 -120 -380.5t-376 -123.5q-259 0 -380.5 122.5t-121.5 381.5v516h283zM692 1309q0 52 39.5 90.5t91.5 38.5q54 0 91.5 -37.5t37.5 -91.5q0 -56 -36.5 -93.5t-92.5 -37.5
t-93.5 37.5t-37.5 93.5zM318 1309q0 52 39.5 90.5t91.5 38.5q53 0 91 -38t38 -91q0 -56 -36.5 -93.5t-92.5 -37.5t-93.5 37.5t-37.5 93.5z" />
    <glyph glyph-name="dagger" unicode="&#x2020;" horiz-adv-x="1176" 
d="M446 -446v1151h-380v256h380v503h283v-503h381v-256h-381v-1151h-283z" />
    <glyph glyph-name="degree" unicode="&#xb0;" horiz-adv-x="674" 
d="M338 1335q-72 0 -124 -51t-52 -123q0 -73 51.5 -124.5t124.5 -51.5t123.5 51.5t50.5 124.5q0 72 -51 123t-123 51zM338 1464q126 0 214.5 -89.5t88.5 -215.5q0 -127 -89 -215t-216 -88q-128 0 -214.5 87.5t-86.5 215.5q0 127 88 216t215 89z" />
    <glyph glyph-name="cent" unicode="&#xa2;" horiz-adv-x="1255" 
d="M961 256q-70 -38 -153 -55q-27 -6 -63 -11v-202h-112v202q-221 39 -340 179t-119 364q0 205 129 343q124 133 330 165v166h112v-164q110 -12 216 -61l-3 -287q-90 94 -229 94q-121 0 -192.5 -72.5t-71.5 -193.5q0 -124 74 -197t198 -73q134 0 221 100z" />
    <glyph glyph-name="sterling" unicode="&#xa3;" horiz-adv-x="1255" 
d="M487 274h17q60 0 176 -45t174 -45q108 0 172 111l154 -164q-109 -174 -291 -174q-93 0 -251.5 56.5t-215.5 56.5q-111 0 -207 -121l-156 153q128 164 277 181q22 22 32.5 51t10.5 76q0 48 -14 95.5t-41 84.5h-226v143h162q-106 156 -106 303q0 204 172 330
q154 113 366 113q210 0 350 -120q146 -125 146 -304l-277 -37q0 98 -66 161q-59 56 -163 56q-94 0 -157 -50q-68 -54 -68 -145q0 -66 83 -266l17 -41h367v-143h-315l5 -70q5 -62 -29 -128q-29 -58 -98 -118z" />
    <glyph glyph-name="section" unicode="&#xa7;" horiz-adv-x="1176" 
d="M414 874q-244 71 -244 285q0 150 122 245t320 95q173 0 281 -79q121 -88 121 -255v-28h-266q0 77 -46 119q-41 38 -127 38q-61 0 -103 -33q-46 -37 -46 -96q0 -111 186 -184q234 -91 313 -148q152 -111 152 -288q0 -261 -303 -344q236 -81 236 -312q0 -174 -136 -265
q-116 -77 -299 -77q-195 0 -314 99q-130 107 -120 260l2 31l265 -1q0 -184 172 -184q75 0 122 37q52 40 52 113q0 113 -225 204l-42 17q-186 75 -264 143q-117 102 -117 262q0 267 308 346zM588 326q89 0 152 60.5t63 148.5q0 86 -63 148t-152 62t-152 -60.5t-63 -149.5
t63 -149t152 -60z" />
    <glyph glyph-name="bullet" unicode="&#x2022;" horiz-adv-x="1208" 
d="M307 762q0 123 87 209t210 86q122 0 208.5 -86.5t86.5 -208.5q0 -123 -87 -210t-210 -87t-209 87t-86 210z" />
    <glyph glyph-name="paragraph" unicode="&#xb6;" 
d="M983 1479v-111h-113v-1368h-151v1368h-158v-1368h-153v784q-161 0 -267 101q-100 95 -100 245q0 166 115 261q107 88 276 88h551z" />
    <glyph glyph-name="germandbls" unicode="&#xdf;" horiz-adv-x="1235" 
d="M139 0v1034q0 216 45 314q102 221 426 221q206 0 326 -89q135 -100 135 -298q0 -119 -61 -201q-51 -68 -166 -135q154 -19 237 -134q76 -105 76 -266q0 -231 -139 -353q-133 -116 -367 -116h-34q-9 2 -18 2l-56 3v229q20 0 30 -2h37q260 0 260 248q0 258 -299 258l-3 -1
l-25 -1v223h18q225 0 225 217q0 82 -45.5 131t-126.5 49q-109 0 -149.5 -84t-40.5 -413v-836h-285z" />
    <glyph glyph-name="registered" unicode="&#xae;" horiz-adv-x="1706" 
d="M745 1034v-239h99q170 0 170 116q0 123 -180 123h-89zM545 1161h323q353 0 353 -237q0 -172 -181 -219l185 -369h-224l-157 338h-99v-338h-200v825zM854 1356q-191 0 -339 -99q-48 -32 -93 -77q-189 -189 -189 -445q0 -258 179 -435q188 -187 440 -187q120 0 233 47
q243 101 342 331q48 111 48 232q0 266 -177 447q-182 186 -444 186zM852 1479q313 0 534 -224q211 -214 211 -522q0 -315 -217 -526q-223 -217 -528 -217q-308 0 -527 223q-214 218 -214 520q0 204 108 387q101 171 267.5 265t365.5 94z" />
    <glyph glyph-name="copyright" unicode="&#xa9;" horiz-adv-x="1706" 
d="M1212 897h-188q-17 147 -172 147q-105 0 -156 -109q-39 -82 -39 -200q0 -301 203 -301q149 0 170 161l193 1q0 -132 -109 -223q-100 -84 -260 -84q-193 0 -300 125q-101 118 -101 315t101 320q109 131 302 131q151 0 250 -78q106 -83 106 -205zM854 1356q-129 0 -240 -46
t-198 -134q-183 -186 -183 -441t182.5 -437.5t438.5 -182.5q189 0 345 104q49 33 97 80q179 176 179 436q0 124 -47 238q-73 176 -229 279.5t-345 103.5zM852 1479q311 0 528 -217t217 -529q0 -308 -217 -521q-226 -222 -528 -222q-297 0 -522 221q-219 215 -219 522
t219 529q214 217 522 217z" />
    <glyph glyph-name="trademark" unicode="&#x2122;" horiz-adv-x="1706" 
d="M803 1462h196l127 -332l123 332h197v-547h-135v410l-154 -410h-61l-158 410v-410h-135v547zM207 1462h485v-112h-168v-435h-149v435h-168v112z" />
    <glyph glyph-name="acute" unicode="&#xb4;" 
d="M805 1495l-313 -369h-142l197 369h258z" />
    <glyph glyph-name="dieresis" unicode="&#xa8;" 
d="M569 1309q0 52 39.5 90.5t91.5 38.5q54 0 91.5 -37.5t37.5 -91.5q0 -56 -36.5 -93.5t-92.5 -37.5t-93.5 37.5t-37.5 93.5zM195 1309q0 52 39.5 90.5t91.5 38.5q53 0 91 -38t38 -91q0 -56 -36.5 -93.5t-92.5 -37.5t-93.5 37.5t-37.5 93.5z" />
    <glyph glyph-name="AE" unicode="&#xc6;" horiz-adv-x="2038" 
d="M961 559l-164 471l-21 84l-20 112q-22 -140 -43 -202l-158 -465h406zM1135 0l-101 317h-567l-102 -317h-336l557 1464h956l86 -264h-575l96 -309h553l88 -256h-553l119 -369h577l88 -266h-886z" />
    <glyph glyph-name="Oslash" unicode="&#xd8;" horiz-adv-x="1763" 
d="M1174 1118q-52 49 -131 77t-166 28q-207 0 -335 -152q-120 -143 -120 -354q0 -142 82 -279zM598 336q64 -51 130 -73.5t155 -22.5q209 0 336 147q122 140 122 352q0 74 -20.5 141t-63.5 134zM199 -70l-101 93l195 200q-195 226 -195 508q0 157 59 295q124 291 426 415
q141 58 302 58q259 0 495 -176l193 197l98 -86l-198 -199q192 -216 192 -498q0 -277 -178 -491q-234 -281 -604 -281q-247 0 -490 162z" />
    <glyph glyph-name="plusminus" unicode="&#xb1;" horiz-adv-x="1706" 
d="M254 197h1198v-199h-1198v199zM752 1223h202v-326h498v-199h-498v-325h-202v325h-498v199h498v326z" />
    <glyph glyph-name="yen" unicode="&#xa5;" horiz-adv-x="1255" 
d="M489 0v537h-475v168h447l-99 159h-348v168h244l-264 420h332l227 -399q16 -28 40 -85q0 -1 23 -62q13 -34 15 -42q11 43 35 101q18 44 43 88l229 399h330l-262 -420h231v-168h-338l-98 -159h436v-168h-463v-537h-285z" />
    <glyph glyph-name="mu" unicode="&#xb5;" horiz-adv-x="1249" 
d="M205 1092h289l-76 -435q-14 -80 -22 -146q-9 -75 -9 -122q0 -184 170 -184q121 0 184 134q35 74 64 239l90 514h289l-193 -1092h-268l18 117q-80 -150 -215 -150q-130 0 -213 121l-90 -526h-286z" />
    <glyph glyph-name="mu" unicode="&#x3bc;" horiz-adv-x="1249" 
d="M205 1092h289l-76 -435q-14 -80 -22 -146q-9 -75 -9 -122q0 -184 170 -184q121 0 184 134q35 74 64 239l90 514h289l-193 -1092h-268l18 117q-80 -150 -215 -150q-130 0 -213 121l-90 -526h-286z" />
    <glyph glyph-name="ordfeminine" unicode="&#xaa;" horiz-adv-x="938" 
d="M109 610h684v-123h-684v123zM463 1325q-178 0 -178 -199q0 -198 176 -198t176 196q0 87 -43 141q-46 60 -131 60zM629 1374v101h223v-703h-227l2 86q-63 -113 -242 -113q-159 0 -251 111q-85 103 -85 266q0 169 85 269q91 106 257 106q167 0 238 -123z" />
    <glyph glyph-name="ordmasculine" unicode="&#xba;" horiz-adv-x="934" 
d="M109 610h716v-123h-716v123zM467 1298q-83 0 -133.5 -47t-50.5 -129q0 -83 50 -129.5t134 -46.5q83 0 133.5 47t50.5 129q0 83 -50 129.5t-134 46.5zM469 1497q176 0 293 -98q125 -105 125 -277q0 -171 -126 -277q-118 -100 -292 -100t-294 100q-128 106 -128 277
q0 169 129 275q121 100 293 100z" />
    <glyph glyph-name="ae" unicode="&#xe6;" horiz-adv-x="1841" 
d="M1755 420h-768q34 -211 250 -211q159 0 238 121l239 -117q-162 -252 -465 -252q-227 0 -364 160q-164 -160 -422 -160q-164 0 -277 86q-125 95 -125 254t119 247q107 79 271 79q175 0 299 -71l4 26l2 24q7 87 -79 149q-79 56 -210 56q-81 0 -149 -22q-78 -25 -164 -78
v229q76 39 160 59q80 19 184 19q126 0 226 -37.5t161 -110.5q144 148 350 148q236 0 379 -139q148 -143 143 -369zM1462 592q-24 186 -231 186q-195 0 -236 -186h467zM762 309q0 73 -75 111q-59 29 -140 29q-83 0 -141 -30q-74 -39 -74 -114q0 -62 53.5 -98.5t142.5 -36.5
q88 0 150 26q84 37 84 113z" />
    <glyph glyph-name="oslash" unicode="&#xf8;" horiz-adv-x="1247" 
d="M467 270q72 -45 162 -45q116 0 186 74t70 190q0 67 -37 134zM770 713q-71 39 -156 39q-116 0 -182.5 -74.5t-66.5 -192.5q0 -60 24 -120zM115 -55l-72 100l139 127q-104 128 -104 313q0 228 155.5 378.5t391.5 150.5q106 0 187 -26.5t165 -84.5l143 133l86 -86l-147 -137
q112 -133 112 -334q0 -227 -161 -375q-156 -143 -385 -143q-228 0 -359 123z" />
    <glyph glyph-name="questiondown" unicode="&#xbf;" horiz-adv-x="1186" 
d="M801 1327q0 -70 -50.5 -120t-121.5 -50q-72 0 -122 49t-50 121t50 121t122 49q71 0 121.5 -49.5t50.5 -120.5zM492 1032h274v-428h-88q-215 0 -215 -221q0 -197 162 -197q79 0 121 48q48 55 42 141l-2 31h283v-33q0 -194 -136 -307q-127 -105 -325 -105
q-201 0 -319.5 115.5t-118.5 316.5q0 315 322 381v258z" />
    <glyph glyph-name="exclamdown" unicode="&#xa1;" horiz-adv-x="688" 
d="M201 1004h284v-1043h-284v1043zM172 1327q0 70 50.5 120t121.5 50q72 0 121 -49t49 -121q0 -71 -49.5 -120.5t-120.5 -49.5q-72 0 -122 49t-50 121z" />
    <glyph glyph-name="logicalnot" unicode="&#xac;" horiz-adv-x="1706" 
d="M254 864h1198v-502h-199v306h-999v196z" />
    <glyph glyph-name="florin" unicode="&#x192;" horiz-adv-x="1255" 
d="M958 737h-202l-88 -712q-29 -233 -86 -330q-87 -146 -285 -146q-81 0 -158 45l45 205l44 -15l36 -5q92 0 125 116q8 25 27 191l76 651h-189l19 211h196l17 152q42 379 303 379q46 0 100.5 -11t103.5 -30l-18 -203q-23 10 -71 27q-21 6 -35 6q-71 0 -100 -75
q-13 -33 -25 -136l-13 -109h201z" />
    <glyph glyph-name="guillemotleft" unicode="&#xab;" horiz-adv-x="1059" 
d="M573 836l-276 -351l270 -346l-149 -106l-355 454l357 455zM995 836l-278 -351l270 -346l-149 -106l-353 454l357 455z" />
    <glyph glyph-name="guillemotright" unicode="&#xbb;" horiz-adv-x="1059" 
d="M485 836l154 106l356 -455l-354 -454l-147 106l268 346zM63 836l154 106l356 -455l-352 -454l-149 106l270 346z" />
    <glyph glyph-name="ellipsis" unicode="&#x2026;" horiz-adv-x="2048" 
d="M168 141q0 73 50 123.5t122 50.5q71 0 121.5 -51t50.5 -123q0 -71 -50 -120.5t-122 -49.5q-71 0 -121.5 49.5t-50.5 120.5zM850 141q0 73 50 123.5t122 50.5q71 0 121.5 -51t50.5 -123q0 -71 -50 -120.5t-122 -49.5q-71 0 -121.5 49.5t-50.5 120.5zM1534 141
q0 73 50 123.5t122 50.5q71 0 121.5 -51t50.5 -123q0 -71 -50 -120.5t-122 -49.5q-71 0 -121.5 49.5t-50.5 120.5z" />
    <glyph glyph-name="nonbreakingspace" unicode="&#xa0;" horiz-adv-x="1255" 
 />
    <glyph glyph-name="Agrave" unicode="&#xc0;" horiz-adv-x="1460" 
d="M922 557l-164 473l-18 72l-23 125q-15 -86 -25 -128l-18 -75l-158 -467h406zM-10 0l557 1464h358l565 -1464h-356l-119 311h-567l-102 -311h-336zM438 1972h258l197 -369h-142z" />
    <glyph glyph-name="Atilde" unicode="&#xc3;" horiz-adv-x="1460" 
d="M922 557l-164 473l-18 72l-23 125q-15 -86 -25 -128l-18 -75l-158 -467h406zM-10 0l557 1464h358l565 -1464h-356l-119 311h-567l-102 -311h-336zM1048 1923q-52 -242 -208 -242h-27q-8 2 -12 2l-36 9l-87 26l-36 8l-30 2q-31 2 -53.5 -17.5t-34.5 -59.5h-110
q49 235 204 235h23q15 -2 43 -8q14 -5 20 -6l118 -31l30 -2q32 -2 53 19t33 65h110z" />
    <glyph glyph-name="Otilde" unicode="&#xd5;" horiz-adv-x="1763" 
d="M1663 729q0 -325 -228 -543q-236 -225 -552 -225q-279 0 -498 176q-285 229 -285 592q0 324 226 542q234 226 557 226q232 0 433 -130t289 -342q58 -140 58 -296zM883 240q203 0 333 144q125 139 125 345q0 204 -126 345q-131 147 -332 147q-203 0 -334 -146
q-127 -141 -127 -346q0 -209 125 -347q129 -142 336 -142zM1200 1923q-52 -242 -208 -242h-27q-8 2 -12 2l-36 9l-87 26l-36 8l-30 2q-31 2 -53.5 -17.5t-34.5 -59.5h-110q49 235 204 235h23q15 -2 43 -8q14 -5 20 -6l118 -31l30 -2q32 -2 53 19t33 65h110z" />
    <glyph glyph-name="OE" unicode="&#x152;" horiz-adv-x="2339" 
d="M1346 1464h862v-264h-549v-301h549v-266h-549v-367h549v-266h-862l-3 166q-147 -201 -462 -201q-276 0 -486 174q-280 232 -280 592q0 314 224 544q218 222 542 222q299 0 467 -205zM889 240q208 0 332 142q118 136 118 347q0 209 -119 348q-125 146 -331 146
q-200 0 -329 -149q-122 -142 -122 -345q0 -208 120 -345q126 -144 331 -144z" />
    <glyph glyph-name="oe" unicode="&#x153;" horiz-adv-x="2050" 
d="M1651 592q-25 188 -232 188q-195 0 -235 -188h467zM1943 420h-767q30 -211 249 -211q159 0 238 121l242 -115q-163 -254 -473 -254q-299 0 -414 180q-152 -180 -402 -180q-231 0 -384 147q-156 149 -156 379q0 231 161 381q157 146 390 146q258 0 389 -189
q132 189 397 189q246 0 390 -135q148 -140 143 -369l-1 -76q-2 -10 -2 -14zM881 487q0 119 -70 192t-188 73t-188 -73t-70 -192q0 -121 69 -192.5t189 -71.5q118 0 188 73t70 191z" />
    <glyph glyph-name="endash" unicode="&#x2013;" 
d="M0 393v191h1024v-191h-1024z" />
    <glyph glyph-name="emdash" unicode="&#x2014;" horiz-adv-x="2048" 
d="M0 393v191h2048v-191h-2048z" />
    <glyph glyph-name="quotedblleft" unicode="&#x201c;" horiz-adv-x="1090" 
d="M1038 1464l-190 -626h-309l309 626h190zM551 1464l-191 -626h-309l309 626h191z" />
    <glyph glyph-name="quotedblright" unicode="&#x201d;" horiz-adv-x="1090" 
d="M51 838l193 626h307l-309 -626h-191zM539 838l190 626h309l-309 -626h-190z" />
    <glyph glyph-name="quoteleft" unicode="&#x2018;" horiz-adv-x="629" 
d="M563 1464l-190 -626h-310l310 626h190z" />
    <glyph glyph-name="quoteright" unicode="&#x2019;" horiz-adv-x="629" 
d="M63 838l193 626h307l-309 -626h-191z" />
    <glyph glyph-name="divide" unicode="&#xf7;" horiz-adv-x="1706" 
d="M854 369q61 0 106.5 -45.5t45.5 -106.5t-45.5 -105t-106.5 -44q-64 0 -108 42.5t-44 106.5q0 63 44.5 107.5t107.5 44.5zM254 711h1198v-199h-1198v199zM854 1155q62 0 107 -45t45 -106q0 -63 -44.5 -107.5t-107.5 -44.5t-107.5 44.5t-44.5 107.5t44.5 107t107.5 44z" />
    <glyph glyph-name="ydieresis" unicode="&#xff;" horiz-adv-x="1053" 
d="M381 76l-395 905h329l170 -449q18 -47 28 -97q8 -39 17 -121q14 89 62 229l149 438h326l-584 -1427h-315zM583 1309q0 52 39.5 90.5t91.5 38.5q54 0 91.5 -37.5t37.5 -91.5q0 -56 -36.5 -93.5t-92.5 -37.5t-93.5 37.5t-37.5 93.5zM209 1309q0 52 39.5 90.5t91.5 38.5
q53 0 91 -38t38 -91q0 -56 -36.5 -93.5t-92.5 -37.5t-93.5 37.5t-37.5 93.5z" />
    <glyph glyph-name="Ydieresis" unicode="&#x178;" horiz-adv-x="1241" 
d="M465 0v668l-496 796h367l217 -401q20 -37 33 -76l35 -106q26 101 71 184l215 399h365l-494 -796v-668h-313zM678 1786q0 52 39.5 90.5t91.5 38.5q54 0 91.5 -37.5t37.5 -91.5q0 -56 -36.5 -93.5t-92.5 -37.5t-93.5 37.5t-37.5 93.5zM304 1786q0 52 39.5 90.5t91.5 38.5
q53 0 91 -38t38 -91q0 -56 -36.5 -93.5t-92.5 -37.5t-93.5 37.5t-37.5 93.5z" />
    <glyph glyph-name="currency" unicode="&#xa4;" horiz-adv-x="1241" 
d="M623 1161q-113 0 -195 -81.5t-82 -194.5q0 -115 81 -195t196 -80q114 0 195 80.5t81 194.5q0 112 -82 194t-194 82zM172 1438l205 -203q81 58 176 73q31 5 68 5q66 0 130 -20t117 -58l203 203l105 -107l-203 -205q76 -104 76 -241q0 -133 -76 -242l203 -205l-105 -104
l-203 203q-56 -40 -114.5 -59t-130.5 -19q-145 0 -246 78l-205 -203l-104 104l202 205q-75 109 -75 242q0 137 75 241l-202 205z" />
    <glyph glyph-name="guilsinglleft" unicode="&#x2039;" horiz-adv-x="639" 
d="M575 836l-278 -351l270 -346l-149 -106l-352 454l356 455z" />
    <glyph glyph-name="guilsinglright" unicode="&#x203a;" horiz-adv-x="639" 
d="M66 836l153 106l356 -455l-354 -454l-149 106l270 346z" />
    <glyph glyph-name="daggerdbl" unicode="&#x2021;" horiz-adv-x="1176" 
d="M444 -446v471h-378v231h378v588h-378v233h378v387h285v-387h381v-233h-381v-588h381v-231h-381v-471h-285z" />
    <glyph glyph-name="periodcentered" unicode="&#xb7;" horiz-adv-x="629" 
d="M141 721q0 71 50.5 120.5t121.5 49.5q73 0 122.5 -49t49.5 -121t-50 -122t-122 -50q-70 0 -121 51t-51 121z" />
    <glyph glyph-name="periodcentered" unicode="&#x2219;" horiz-adv-x="629" 
d="M141 721q0 71 50.5 120.5t121.5 49.5q73 0 122.5 -49t49.5 -121t-50 -122t-122 -50q-70 0 -121 51t-51 121z" />
    <glyph glyph-name="quotesinglbase" unicode="&#x201a;" horiz-adv-x="629" 
d="M63 -332l193 627h307l-309 -627h-191z" />
    <glyph glyph-name="quotedblbase" unicode="&#x201e;" horiz-adv-x="1090" 
d="M539 -332l190 627h309l-309 -627h-190zM51 -332l193 627h307l-309 -627h-191z" />
    <glyph glyph-name="perthousand" unicode="&#x2030;" horiz-adv-x="2558" 
d="M741 1075q0 -180 -83 -287q-93 -118 -267 -118q-175 0 -268 117q-84 107 -84 288q0 179 85 286q93 118 267 118q176 0 267 -117q83 -105 83 -287zM254 1075q0 -262 137 -262t137 262q0 260 -137 260t-137 -260zM510 -39h-150l857 1518h149zM1692 367q0 -180 -85 -288
q-93 -118 -268 -118t-268 118q-84 107 -84 288q0 179 85 286q93 117 267 117q177 0 269 -116q84 -105 84 -287zM1202 365q0 -261 137 -261q140 0 140 263q0 260 -138 260q-139 0 -139 -262zM2519 367q0 -180 -83 -288q-92 -118 -267 -118t-268 118q-84 107 -84 288
q0 179 85 286q93 117 267 117q176 0 267 -116q83 -106 83 -287zM2030 365q0 -261 137 -261q139 0 139 263q0 260 -137 260q-139 0 -139 -262z" />
    <glyph glyph-name="Acircumflex" unicode="&#xc2;" horiz-adv-x="1460" 
d="M922 557l-164 473l-18 72l-23 125q-15 -86 -25 -128l-18 -75l-158 -467h406zM-10 0l557 1464h358l565 -1464h-356l-119 311h-567l-102 -311h-336zM416 1603l196 369h238l196 -369h-141l-174 217l-176 -217h-139z" />
    <glyph glyph-name="Ecircumflex" unicode="&#xca;" horiz-adv-x="1169" 
d="M164 0v1464h862v-264h-549v-301h549v-266h-549v-367h549v-266h-862zM277 1603l196 369h238l196 -369h-141l-174 217l-176 -217h-139z" />
    <glyph glyph-name="Aacute" unicode="&#xc1;" horiz-adv-x="1460" 
d="M922 557l-164 473l-18 72l-23 125q-15 -86 -25 -128l-18 -75l-158 -467h406zM-10 0l557 1464h358l565 -1464h-356l-119 311h-567l-102 -311h-336zM1024 1972l-313 -369h-142l197 369h258z" />
    <glyph glyph-name="Edieresis" unicode="&#xcb;" horiz-adv-x="1169" 
d="M164 0v1464h862v-264h-549v-301h549v-266h-549v-367h549v-266h-862zM649 1786q0 52 39.5 90.5t91.5 38.5q54 0 91.5 -37.5t37.5 -91.5q0 -56 -36.5 -93.5t-92.5 -37.5t-93.5 37.5t-37.5 93.5zM275 1786q0 52 39.5 90.5t91.5 38.5q53 0 91 -38t38 -91q0 -56 -36.5 -93.5
t-92.5 -37.5t-93.5 37.5t-37.5 93.5z" />
    <glyph glyph-name="Egrave" unicode="&#xc8;" horiz-adv-x="1169" 
d="M164 0v1464h862v-264h-549v-301h549v-266h-549v-367h549v-266h-862zM299 1972h258l197 -369h-142z" />
    <glyph glyph-name="Iacute" unicode="&#xcd;" horiz-adv-x="653" 
d="M170 0v1464h313v-1464h-313zM621 1972l-313 -369h-142l197 369h258z" />
    <glyph glyph-name="Icircumflex" unicode="&#xce;" horiz-adv-x="653" 
d="M170 0v1464h313v-1464h-313zM13 1603l196 369h238l196 -369h-141l-174 217l-176 -217h-139z" />
    <glyph glyph-name="Idieresis" unicode="&#xcf;" horiz-adv-x="653" 
d="M170 0v1464h313v-1464h-313zM385 1786q0 52 39.5 90.5t91.5 38.5q54 0 91.5 -37.5t37.5 -91.5q0 -56 -36.5 -93.5t-92.5 -37.5t-93.5 37.5t-37.5 93.5zM11 1786q0 52 39.5 90.5t91.5 38.5q53 0 91 -38t38 -91q0 -56 -36.5 -93.5t-92.5 -37.5t-93.5 37.5t-37.5 93.5z" />
    <glyph glyph-name="Igrave" unicode="&#xcc;" horiz-adv-x="653" 
d="M170 0v1464h313v-1464h-313zM35 1972h258l197 -369h-142z" />
    <glyph glyph-name="Oacute" unicode="&#xd3;" horiz-adv-x="1763" 
d="M1663 729q0 -325 -228 -543q-236 -225 -552 -225q-279 0 -498 176q-285 229 -285 592q0 324 226 542q234 226 557 226q232 0 433 -130t289 -342q58 -140 58 -296zM883 240q203 0 333 144q125 139 125 345q0 204 -126 345q-131 147 -332 147q-203 0 -334 -146
q-127 -141 -127 -346q0 -209 125 -347q129 -142 336 -142zM1176 1972l-313 -369h-142l197 369h258z" />
    <glyph glyph-name="Ocircumflex" unicode="&#xd4;" horiz-adv-x="1763" 
d="M1663 729q0 -325 -228 -543q-236 -225 -552 -225q-279 0 -498 176q-285 229 -285 592q0 324 226 542q234 226 557 226q232 0 433 -130t289 -342q58 -140 58 -296zM883 240q203 0 333 144q125 139 125 345q0 204 -126 345q-131 147 -332 147q-203 0 -334 -146
q-127 -141 -127 -346q0 -209 125 -347q129 -142 336 -142zM568 1603l196 369h238l196 -369h-141l-174 217l-176 -217h-139z" />
    <glyph glyph-name="Ograve" unicode="&#xd2;" horiz-adv-x="1763" 
d="M1663 729q0 -325 -228 -543q-236 -225 -552 -225q-279 0 -498 176q-285 229 -285 592q0 324 226 542q234 226 557 226q232 0 433 -130t289 -342q58 -140 58 -296zM883 240q203 0 333 144q125 139 125 345q0 204 -126 345q-131 147 -332 147q-203 0 -334 -146
q-127 -141 -127 -346q0 -209 125 -347q129 -142 336 -142zM590 1972h258l197 -369h-142z" />
    <glyph glyph-name="Uacute" unicode="&#xda;" horiz-adv-x="1583" 
d="M1423 1464v-911q0 -592 -630 -592q-635 0 -635 592v911h311v-862q0 -364 319 -364q324 0 324 364v862h311zM1086 1972l-313 -369h-142l197 369h258z" />
    <glyph glyph-name="Ucircumflex" unicode="&#xdb;" horiz-adv-x="1583" 
d="M1423 1464v-911q0 -592 -630 -592q-635 0 -635 592v911h311v-862q0 -364 319 -364q324 0 324 364v862h311zM478 1603l196 369h238l196 -369h-141l-174 217l-176 -217h-139z" />
    <glyph glyph-name="Ugrave" unicode="&#xd9;" horiz-adv-x="1583" 
d="M1423 1464v-911q0 -592 -630 -592q-635 0 -635 592v911h311v-862q0 -364 319 -364q324 0 324 364v862h311zM500 1972h258l197 -369h-142z" />
    <glyph glyph-name="circumflex" unicode="&#x2c6;" 
d="M197 1126l196 369h238l196 -369h-141l-174 217l-176 -217h-139z" />
    <glyph glyph-name="tilde" unicode="&#x2dc;" 
d="M829 1446q-52 -242 -208 -242h-27q-8 2 -12 2l-36 9l-87 26l-36 8l-30 2q-31 2 -53.5 -17.5t-34.5 -59.5h-110q49 235 204 235h23q15 -2 43 -8q14 -5 20 -6l118 -31l30 -2q32 -2 53 19t33 65h110z" />
    <glyph glyph-name="macron" unicode="&#xaf;" 
d="M225 1229v155h574v-155h-574z" />
    <glyph glyph-name="macron" unicode="&#x2c9;" 
d="M225 1229v155h574v-155h-574z" />
    <glyph glyph-name="cedilla" unicode="&#xb8;" 
d="M238 -438v127q109 -28 206 -40q30 -3 52 -3q100 0 100 75q0 68 -121 68h-32q-16 0 -25 -2v213h102v-90h15q235 0 235 -193q0 -198 -266 -198q-78 0 -190 24q-38 8 -76 19z" />
    <glyph glyph-name="Scaron" unicode="&#x160;" horiz-adv-x="1147" 
d="M70 186l174 197q33 -81 107 -127.5t163 -46.5q100 0 165 45q73 51 73 147q0 101 -213 207l-109 54q-185 92 -265 195q-75 97 -75 228q0 199 164 313q144 101 352 101q130 0 228.5 -47t171.5 -145l-185 -177q-66 127 -219 127q-86 0 -142 -40q-65 -45 -65 -127
q0 -114 226 -212l69 -30q180 -78 275 -191q90 -108 90 -245q0 -217 -154 -339q-141 -112 -364 -112q-344 0 -467 225zM258 1972h139l176 -217l174 217h141l-196 -369h-238z" />
    <glyph glyph-name="scaron" unicode="&#x161;" horiz-adv-x="934" 
d="M43 172l219 113q23 -123 178 -123q150 0 150 96q0 68 -142 119l-70 25q-170 61 -240 131q-66 66 -66 163q0 159 131 246q113 76 280 76q276 0 369 -203l-209 -104q-33 112 -164 112q-141 0 -141 -94q0 -75 194 -136l35 -11q297 -93 297 -303q0 -162 -134 -247
q-112 -71 -284 -71q-134 0 -237 46q-124 55 -166 165zM152 1495h139l176 -217l174 217h141l-196 -369h-238z" />
    <glyph glyph-name="brokenbar" unicode="&#xa6;" 
d="M410 408h206v-758h-206v758zM410 1432h206v-758h-206v758z" />
    <glyph glyph-name="Eth" unicode="&#xd0;" horiz-adv-x="1645" 
d="M891 772h667l2 -28l1 -46q7 -321 -188 -533q-188 -204 -486 -204q-340 0 -561.5 215.5t-221.5 554.5q0 336 223 551t560 215q357 0 594 -299l-211 -156q-147 185 -367 185t-350 -139q-127 -135 -127 -357q0 -218 126 -354q129 -141 345 -141q137 0 233 61q113 71 113 201
v16h-352v258zM514 1939h123q0 -72 51 -113q44 -36 135 -36q169 0 184 149h123q0 -146 -86 -231q-73 -72 -221 -72t-224 74q-85 83 -85 229z" />
    <glyph glyph-name="eth" unicode="&#xf0;" horiz-adv-x="1262" 
d="M1120 16q0 -123 -9 -174q-16 -92 -73 -153q-126 -135 -407 -135q-357 0 -461 171q-37 61 -37 136h313q12 -111 185 -111q123 0 174 71q45 61 45 189v140q-113 -179 -328 -179q-216 0 -336 158q-108 142 -108 365q0 229 105 367q117 153 339 153q104 0 189 -49.5
t141 -145.5v162h268v-965zM862 492q0 123 -61 198q-66 82 -185 82q-122 0 -188 -80q-61 -75 -61 -200q0 -126 60 -198q64 -79 187 -79q122 0 188 79q60 73 60 198zM322 1462h123q0 -72 51 -113q44 -36 135 -36q169 0 184 149h123q0 -146 -86 -231q-73 -72 -221 -72t-224 74
q-85 83 -85 229z" />
    <glyph glyph-name="Yacute" unicode="&#xdd;" horiz-adv-x="653" 
d="M170 0v1464h313v-1464h-313zM193 1784q0 54 41 95.5t94 41.5q55 0 96 -41t41 -96q0 -58 -39.5 -97t-97.5 -39q-55 0 -95 40.5t-40 95.5z" />
    <glyph glyph-name="yacute" unicode="&#xfd;" horiz-adv-x="584" 
d="M150 0v981h284v-981h-284z" />
    <glyph glyph-name="Thorn" unicode="&#xde;" horiz-adv-x="1147" 
d="M479 -37q-113 0 -231 56.5t-178 166.5l174 197q33 -81 107 -127.5t163 -46.5q100 0 165 45q73 51 73 147q0 101 -213 207l-109 54q-185 92 -265 195q-75 97 -75 228q0 199 164 313q144 101 352 101q130 0 228.5 -47t171.5 -145l-185 -177q-66 127 -219 127
q-86 0 -142 -40q-65 -45 -65 -127q0 -114 226 -212l69 -30q180 -78 275 -191q90 -108 90 -245q0 -204 -141 -329q-137 -121 -333 -121v-52h15q235 0 235 -193q0 -198 -266 -198q-78 0 -190 24q-38 8 -76 19v127q109 -28 206 -40q30 -3 52 -3q100 0 100 75q0 68 -121 68h-32
q-16 0 -25 -2v176z" />
    <glyph glyph-name="thorn" unicode="&#xfe;" horiz-adv-x="934" 
d="M373 -36q-106 10 -187 53q-105 55 -143 155l219 113q23 -123 178 -123q150 0 150 96q0 68 -142 119l-70 25q-170 61 -240 131q-66 66 -66 163q0 159 131 246q113 76 280 76q276 0 369 -203l-209 -104q-33 112 -164 112q-141 0 -141 -94q0 -75 194 -136l35 -11
q297 -93 297 -303q0 -146 -112 -231.5t-277 -85.5v-52h15q235 0 235 -193q0 -198 -266 -198q-78 0 -190 24q-38 8 -76 19v127q109 -28 206 -40q30 -3 52 -3q100 0 100 75q0 68 -121 68h-32q-16 0 -25 -2v177z" />
    <glyph glyph-name="minus" horiz-adv-x="854" 
d="M147 362v252h560v-252h-560z" />
    <glyph glyph-name="multiply" unicode="&#xd7;" horiz-adv-x="1706" 
d="M416 1202l450 -450l451 450l141 -139l-450 -453l450 -450l-141 -140l-451 451l-450 -451l-140 140l451 450l-451 453z" />
    <glyph glyph-name="onesuperior" unicode="&#xb9;" horiz-adv-x="829" 
d="M338 575v723h-195l82 148h307v-871h-194z" />
    <glyph glyph-name="twosuperior" unicode="&#xb2;" horiz-adv-x="829" 
d="M721 721v-146h-668l342 410q76 91 99 132q28 50 28 87q0 111 -127 111q-58 0 -89.5 -39t-31.5 -98v-4h-194v14q0 138 91 209q82 65 224 65q138 0 223 -51q103 -63 103 -192q0 -123 -229 -390l-6 -7l-91 -101h326z" />
    <glyph glyph-name="threesuperior" unicode="&#xb3;" horiz-adv-x="829" 
d="M70 807h190q0 -78 84 -102q24 -7 59 -7q152 0 152 127q0 129 -162 129h-24v154l10 -1l12 -1q63 -5 107 28q37 28 37 83q0 48 -35 76t-84 28q-111 0 -127 -90h-185q0 106 89 171q82 60 229 60q125 0 207 -53q98 -62 98 -180q0 -74 -44.5 -126.5t-117.5 -64.5
q84 -16 134.5 -77.5t50.5 -147.5q0 -134 -113 -203q-94 -57 -238 -57q-133 0 -223 56q-106 66 -106 192v6z" />
    <glyph glyph-name="onehalf" unicode="&#xbd;" horiz-adv-x="1925" 
d="M1821 135v-135h-637l327 381q121 141 121 205q0 104 -121 104q-116 0 -116 -129l-187 -2v12q0 256 303 256q130 0 211 -48q99 -58 99 -179q0 -124 -215 -359l-11 -12l-84 -94h310zM449 -39l874 1518h150l-875 -1518h-149zM322 633v674h-185l78 137h293v-811h-186z" />
    <glyph glyph-name="onequarter" unicode="&#xbc;" horiz-adv-x="1925" 
d="M1606 0v158h-445v75l445 594h170v-553h96v-116h-96v-158h-170zM1608 274v316q0 15 2 28l6 39l-34 -64q-8 -15 -32 -48l-198 -271h256zM449 -39l874 1518h150l-875 -1518h-149zM322 633v674h-185l78 137h293v-811h-186z" />
    <glyph glyph-name="threequarters" unicode="&#xbe;" horiz-adv-x="1923" 
d="M1606 0v158h-445v75l445 594h170v-553h96v-116h-96v-158h-170zM1608 274v316q0 15 2 28l6 39l-34 -64q-8 -15 -32 -48l-198 -271h256zM449 -39l874 1518h150l-875 -1518h-149zM68 850h182q0 -102 135 -102q145 0 145 118q0 121 -155 121l-11 -1l-14 -1v143h23
q137 0 137 103q0 98 -115 98q-107 0 -121 -86h-174q0 100 84 160q79 57 219 57q120 0 198 -47q93 -57 93 -170q0 -70 -42.5 -118t-112.5 -60q81 -17 129.5 -73t48.5 -138q0 -126 -110 -191q-91 -53 -226 -53q-125 0 -211 52q-102 63 -102 180v8z" />
    <glyph glyph-name="Lslash" unicode="&#x141;" horiz-adv-x="1026" 
d="M180 0v512l-121 -84l-122 186l243 172v678h314v-491l206 143l123 -188l-329 -230v-432h499v-266h-813z" />
    <glyph glyph-name="lslash" unicode="&#x142;" horiz-adv-x="621" 
d="M168 0v518l-96 -69l-107 155l203 144v802h285v-616l96 70l106 -154l-202 -145v-705h-285z" />
    <glyph glyph-name="HT" horiz-adv-x="629" 
 />
    <glyph glyph-name="nonmarkingreturn" horiz-adv-x="629" 
 />
    <glyph glyph-name="Zcaron" unicode="&#x17d;" horiz-adv-x="1298" 
d="M1235 0h-1229l758 1214h-680v250h1182l-758 -1212h727v-252zM334 1972h139l176 -217l174 217h141l-196 -369h-238z" />
    <glyph glyph-name="zcaron" unicode="&#x17e;" horiz-adv-x="985" 
d="M940 0h-940l520 758h-457v223h889l-514 -758h502v-223zM179 1495h139l176 -217l174 217h141l-196 -369h-238z" />
    <glyph glyph-name="notequal" unicode="&#x2260;" horiz-adv-x="1706" 
d="M1198 1233l148 -119l-154 -192h260v-191h-389l-191 -239h580v-193h-707l-245 -309l-148 119l154 190h-252v193h377l190 239h-567v191h696z" />
    <glyph glyph-name="infinity" unicode="&#x221e;" horiz-adv-x="1706" 
d="M942 561q90 -151 246 -151q92 0 151.5 54.5t59.5 145.5q0 84 -53 141.5t-136 57.5q-139 0 -268 -248zM766 659q-91 150 -246 150q-91 0 -151 -55.5t-60 -145.5q0 -83 53.5 -140.5t135.5 -57.5q143 0 268 249zM858 457q-136 -258 -321 -258q-153 0 -247 133
q-85 119 -85 278q0 163 71 276q84 134 238 134q108 0 199 -82q61 -56 135 -176q132 260 323 260q153 0 247 -134q85 -119 85 -278q0 -162 -72 -276q-84 -133 -237 -133q-109 0 -199 82q-59 53 -137 174z" />
    <glyph glyph-name="lessequal" unicode="&#x2264;" horiz-adv-x="1706" 
d="M258 195h1192v-197h-1192v197zM1448 1241v-209l-834 -264l834 -262v-209l-1190 385v174z" />
    <glyph glyph-name="greaterequal" unicode="&#x2265;" horiz-adv-x="1706" 
d="M258 195h1192v-197h-1192v197zM260 1241l1188 -385v-174l-1188 -385v209l832 262l-832 264v209z" />
    <glyph glyph-name="partialdiff" unicode="&#x2202;" horiz-adv-x="1094" 
d="M762 662q9 47 16 96q15 104 20 174q3 45 3 74q0 215 -96 215q-38 0 -146 -73t-160 -73q-42 0 -71 30.5t-29 72.5q0 81 114 132q91 40 183 40q218 0 332 -197q94 -162 94 -397q0 -294 -127 -515q-153 -266 -426 -266q-175 0 -284 115t-109 291q0 187 106 319
q115 142 297 142q194 0 283 -180zM700 518q0 240 -149 240q-126 0 -189 -187q-45 -132 -45 -288q0 -238 150 -238q125 0 188 186q45 133 45 287z" />
    <glyph glyph-name="product" unicode="&#x220f;" horiz-adv-x="1612" 
d="M150 1473h1308v-1866h-344v1577h-620v-1577h-344v1866z" />
    <glyph glyph-name="pi" unicode="&#x3c0;" horiz-adv-x="1319" 
d="M1354 1092l-39 -224h-176l-154 -868h-287l152 868h-238l-151 -868h-287l152 868h-25q-102 0 -123 -130l-213 -1q31 204 130 281q94 74 304 74h955z" />
    <glyph glyph-name="integral" unicode="&#x222b;" horiz-adv-x="1186" 
d="M342 -252q53 0 87 165q24 116 34 474l6 211q8 291 34 436q31 175 89 296q107 224 328 224q91 0 150 -43q67 -48 67 -135q0 -61 -38.5 -97t-99.5 -36q-94 0 -118 92q-5 20 -7 54q-2 43 -30 47q-57 0 -84 -158q-24 -139 -35 -475l-6 -178q-1 -70 -6 -212q-20 -315 -84 -483
q-116 -303 -363 -303q-89 0 -149 43q-68 48 -68 133q0 63 40 99.5t104 36.5q45 0 81 -28q39 -31 39 -75q0 -88 29 -88z" />
    <glyph glyph-name="Omega" unicode="&#x3a9;" horiz-adv-x="1575" 
d="M1227 256h291v-256h-609v291q258 176 258 514q0 192 -93 309q-101 127 -288 127t-288 -127q-92 -117 -92 -309q0 -338 258 -514v-291h-609v256h291q-248 236 -248 563q0 314 187 502t501 188t501.5 -188t187.5 -502q0 -323 -248 -563z" />
    <glyph glyph-name="Omega" unicode="&#x2126;" horiz-adv-x="1575" 
d="M1227 256h291v-256h-609v291q258 176 258 514q0 192 -93 309q-101 127 -288 127t-288 -127q-92 -117 -92 -309q0 -338 258 -514v-291h-609v256h291q-248 236 -248 563q0 314 187 502t501 188t501.5 -188t187.5 -502q0 -323 -248 -563z" />
    <glyph glyph-name="radical" unicode="&#x221a;" horiz-adv-x="1346" 
d="M1141 1694h207v-129h-103l-592 -1606h-100l-311 858l-140 -51l-30 113l331 116l236 -661z" />
    <glyph glyph-name="approxequal" unicode="&#x2248;" horiz-adv-x="1706" 
d="M1530 596v-219q-202 -139 -379 -139q-94 0 -287 66q-196 67 -301 67q-84 0 -173 -36q-95 -38 -212 -122v219q219 143 387 143q107 0 302.5 -65.5t287.5 -65.5q89 0 175 35.5t200 116.5zM1530 1008v-220q-205 -137 -377 -137q-97 0 -292 65.5t-298 65.5q-156 0 -385 -157
v219q217 143 387 143q107 0 303 -65.5t287 -65.5q85 0 172.5 35.5t202.5 116.5z" />
    <glyph glyph-name="approxequal" unicode="&#x22f2;" horiz-adv-x="1706" 
d="M1530 596v-219q-202 -139 -379 -139q-94 0 -287 66q-196 67 -301 67q-84 0 -173 -36q-95 -38 -212 -122v219q219 143 387 143q107 0 302.5 -65.5t287.5 -65.5q89 0 175 35.5t200 116.5zM1530 1008v-220q-205 -137 -377 -137q-97 0 -292 65.5t-298 65.5q-156 0 -385 -157
v219q217 143 387 143q107 0 303 -65.5t287 -65.5q85 0 172.5 35.5t202.5 116.5z" />
    <glyph glyph-name="Delta" unicode="&#x394;" horiz-adv-x="1427" 
d="M713 1110l-326 -854h653zM563 1473h301l563 -1473h-1427z" />
    <glyph glyph-name="Delta" unicode="&#x2206;" horiz-adv-x="1427" 
d="M713 1110l-326 -854h653zM563 1473h301l563 -1473h-1427z" />
    <glyph glyph-name="lozenge" unicode="&#x25ca;" horiz-adv-x="1012" 
d="M506 1409l-385 -817l385 -825l385 825zM506 1653l500 -1061l-500 -1069l-500 1069z" />
    <glyph glyph-name="fraction" unicode="&#x2044;" horiz-adv-x="342" 
d="M-342 -39l874 1518h150l-875 -1518h-149z" />
    <glyph glyph-name="fi" unicode="&#xf001;" horiz-adv-x="1247" 
d="M788 1384q0 68 49 117t117 49q69 0 118.5 -48.5t49.5 -117.5t-49 -118t-119 -49q-67 0 -116.5 50t-49.5 117zM813 0v981h285v-981h-285zM174 0v758h-127v223h127v221q0 201 96 287q91 82 295 82q28 0 53 -5q41 -6 80 -16v-227q-50 27 -100 27q-139 0 -139 -176v-193h182
v-223h-182v-758h-285z" />
    <glyph glyph-name="fl" unicode="&#xf002;" horiz-adv-x="1247" 
d="M813 0v1550h285v-1550h-285zM174 0v758h-127v223h127v221q0 201 96 287q91 82 295 82q28 0 53 -5q41 -6 80 -16v-227q-50 27 -100 27q-139 0 -139 -176v-193h182v-223h-182v-758h-285z" />
    <glyph glyph-name="apple" unicode="&#xf000;" horiz-adv-x="1618" 
d="M836 1216l-2 14v23q0 132 102 237q95 98 229 124l1 -23l1 -39q3 -128 -102 -233t-205 -105h-8zM1505 403q-91 -197 -152 -279q-118 -159 -257 -159q-45 0 -129.5 33t-124.5 33q-43 0 -129.5 -33t-128.5 -33q-128 0 -258 176q-101 137 -158 295q-55 153 -55 301
q0 211 117 348q124 146 331 146q57 0 150.5 -34t128.5 -34q34 0 121.5 35t152.5 35q214 0 359 -164q-201 -127 -201 -328q0 -235 233 -338z" />
    <glyph glyph-name="dotlessi" unicode="&#x131;" horiz-adv-x="584" 
d="M150 0v981h284v-981h-284z" />
    <glyph glyph-name="breve" unicode="&#x2d8;" 
d="M203 1462h123q0 -72 51 -113q44 -36 135 -36q169 0 184 149h123q0 -146 -86 -231q-73 -72 -221 -72t-224 74q-85 83 -85 229z" />
    <glyph glyph-name="dotaccent" unicode="&#x2d9;" 
d="M377 1307q0 54 41 95.5t94 41.5q55 0 96 -41t41 -96q0 -58 -39.5 -97t-97.5 -39q-55 0 -95 40.5t-40 95.5z" />
    <glyph glyph-name="ring" unicode="&#x2da;" 
d="M391 1372q0 -52 34.5 -86.5t86.5 -34.5q51 0 87 35t36 86t-36 87t-87 36t-86 -36t-35 -87zM248 1372q0 111 76.5 188.5t187.5 77.5t188.5 -77.5t77.5 -188.5q0 -112 -77 -189t-189 -77t-188 77t-76 189z" />
    <glyph glyph-name="ogonek" unicode="&#x2db;" 
d="M627 0q-62 -51 -94.5 -101.5t-32.5 -103.5q0 -80 82 -80h102v-174h-106q-238 0 -238 185q0 71 44 135t146 139h97z" />
    <glyph glyph-name="caron" unicode="&#x2c7;" 
d="M197 1495h139l176 -217l174 217h141l-196 -369h-238z" />
    <glyph glyph-name="ccaron" unicode="&#x10d;" horiz-adv-x="938" 
d="M862 29q-113 -68 -262 -68q-234 0 -379 148t-145 383q0 232 147.5 377t380.5 145q156 0 258 -62l-2 -286q-96 96 -229 96q-122 0 -193 -73t-71 -195q0 -124 74 -197.5t198 -73.5q135 0 221 103zM258 1495h139l176 -217l174 217h141l-196 -369h-238z" />
    <glyph glyph-name="dcroat" unicode="&#x111;" horiz-adv-x="1280" 
d="M862 805l-8 67l-2 107v182h-334v176h334v213h270v-213h158v-176h-158v-1161h-276l4 141q-112 -180 -338 -180q-206 0 -326 159q-108 144 -108 357q0 231 104 369q117 155 340 155q105 0 187 -47t153 -149zM367 485q0 -121 62 -195q66 -79 185 -79q120 0 186 78
q62 74 62 196q0 123 -61 199q-66 84 -185 84q-120 0 -187 -83q-62 -77 -62 -200z" />
    <glyph glyph-name="Cacute" unicode="&#x106;" horiz-adv-x="1470" 
d="M1343 1083q-138 123 -297 154q-52 10 -112 10q-235 0 -373.5 -140.5t-138.5 -375.5q0 -228 126 -363q129 -139 355 -139q254 0 438 170l-2 -321q-196 -117 -440 -117q-345 0 -569 212q-230 216 -230 558q0 343 233 558q226 210 572 210q249 0 449 -102zM1182 1972
l-313 -369h-142l197 369h258z" />
    <glyph glyph-name="Scedilla" unicode="&#x15e;" horiz-adv-x="1147" 
d="M70 186l174 197q33 -81 107 -127.5t163 -46.5q100 0 165 45q73 51 73 147q0 101 -213 207l-109 54q-185 92 -265 195q-75 97 -75 228q0 199 164 313q144 101 352 101q130 0 228.5 -47t171.5 -145l-185 -177q-66 127 -219 127q-86 0 -142 -40q-65 -45 -65 -127
q0 -114 226 -212l69 -30q180 -78 275 -191q90 -108 90 -245q0 -217 -154 -339q-141 -112 -364 -112q-344 0 -467 225zM299 -438v127q109 -28 206 -40q30 -3 52 -3q100 0 100 75q0 68 -121 68h-32q-16 0 -25 -2v213h102v-90h15q235 0 235 -193q0 -198 -266 -198
q-78 0 -190 24q-38 8 -76 19z" />
    <glyph glyph-name="Ccaron" unicode="&#x10c;" horiz-adv-x="1470" 
d="M1343 1083q-138 123 -297 154q-52 10 -112 10q-235 0 -373.5 -140.5t-138.5 -375.5q0 -228 126 -363q129 -139 355 -139q254 0 438 170l-2 -321q-196 -117 -440 -117q-345 0 -569 212q-230 216 -230 558q0 343 233 558q226 210 572 210q249 0 449 -102zM574 1972h139
l176 -217l174 217h141l-196 -369h-238z" />
    <glyph glyph-name="cacute" unicode="&#x107;" horiz-adv-x="938" 
d="M862 29q-113 -68 -262 -68q-234 0 -379 148t-145 383q0 232 147.5 377t380.5 145q156 0 258 -62l-2 -286q-96 96 -229 96q-122 0 -193 -73t-71 -195q0 -124 74 -197.5t198 -73.5q135 0 221 103zM866 1495l-313 -369h-142l197 369h258z" />
    <glyph glyph-name="scedilla" unicode="&#x15f;" horiz-adv-x="934" 
d="M43 172l219 113q23 -123 178 -123q150 0 150 96q0 68 -142 119l-70 25q-170 61 -240 131q-66 66 -66 163q0 159 131 246q113 76 280 76q276 0 369 -203l-209 -104q-33 112 -164 112q-141 0 -141 -94q0 -75 194 -136l35 -11q297 -93 297 -303q0 -162 -134 -247
q-112 -71 -284 -71q-134 0 -237 46q-124 55 -166 165zM193 -438v127q109 -28 206 -40q30 -3 52 -3q100 0 100 75q0 68 -121 68h-32q-16 0 -25 -2v213h102v-90h15q235 0 235 -193q0 -198 -266 -198q-78 0 -190 24q-38 8 -76 19z" />
    <glyph glyph-name="franc" unicode="&#x20a3;" horiz-adv-x="1937" 
d="M164 0v1464h862v-264h-549v-301h549v-266h-549v-633h-313zM1518 729q63 213 213 267q50 18 110 18q29 0 89 -10l18 -3l-43 -306q-71 26 -133 26q-138 0 -195 -78q-49 -67 -49 -211v-432h-285v981h281z" />
    <glyph glyph-name="Gbreve" unicode="&#x11e;" horiz-adv-x="1645" 
d="M891 772h667l2 -28l1 -46q7 -321 -188 -533q-188 -204 -486 -204q-340 0 -561.5 215.5t-221.5 554.5q0 336 223 551t560 215q357 0 594 -299l-211 -156q-147 185 -367 185t-350 -139q-127 -135 -127 -357q0 -218 126 -354q129 -141 345 -141q137 0 233 61q113 71 113 201
v16h-352v258zM514 1939h123q0 -72 51 -113q44 -36 135 -36q169 0 184 149h123q0 -146 -86 -231q-73 -72 -221 -72t-224 74q-85 83 -85 229z" />
    <glyph glyph-name="gbreve" unicode="&#x11f;" horiz-adv-x="1262" 
d="M1120 16q0 -123 -9 -174q-16 -92 -73 -153q-126 -135 -407 -135q-357 0 -461 171q-37 61 -37 136h313q12 -111 185 -111q123 0 174 71q45 61 45 189v140q-113 -179 -328 -179q-216 0 -336 158q-108 142 -108 365q0 229 105 367q117 153 339 153q104 0 189 -49.5
t141 -145.5v162h268v-965zM862 492q0 123 -61 198q-66 82 -185 82q-122 0 -188 -80q-61 -75 -61 -200q0 -126 60 -198q64 -79 187 -79q122 0 188 79q60 73 60 198zM322 1462h123q0 -72 51 -113q44 -36 135 -36q169 0 184 149h123q0 -146 -86 -231q-73 -72 -221 -72t-224 74
q-85 83 -85 229z" />
    <glyph glyph-name="Idotaccent" unicode="&#x130;" horiz-adv-x="653" 
d="M170 0v1464h313v-1464h-313zM193 1784q0 54 41 95.5t94 41.5q55 0 96 -41t41 -96q0 -58 -39.5 -97t-97.5 -39q-55 0 -95 40.5t-40 95.5z" />
    <glyph glyph-name="c294" unicode="&#x2211;" horiz-adv-x="1470" 
d="M66 1473h1308v-265h-878l620 -645l-622 -690h933v-266h-1386v172l698 772l-673 690v232z" />
    <glyph glyph-name="c295" unicode="&#xad;" horiz-adv-x="1706" 
d="M254 713h1198v-203h-1198v203z" />
    <glyph glyph-name="c295" unicode="&#x2212;" horiz-adv-x="1706" 
d="M254 713h1198v-203h-1198v203z" />
  </font>
</defs>
</svg>
